<?xml version="1.0" encoding="UTF-8"?>
<svg xmlns="http://www.w3.org/2000/svg" xmlns:xlink="http://www.w3.org/1999/xlink" width="30pt" height="30.000001pt" viewBox="0 0 30 30.000001" version="1.2">
<defs>
<clipPath id="clip1">
  <path d="M 0.484375 0 L 29.515625 0 L 29.515625 29.03125 L 0.484375 29.03125 Z M 0.484375 0 "/>
</clipPath>
<clipPath id="clip2">
  <path d="M 1.195312 0 L 28.753906 0 L 28.753906 29 L 1.195312 29 Z M 1.195312 0 "/>
</clipPath>
</defs>
<g id="surface1">
<g clip-path="url(#clip1)" clip-rule="nonzero">
<path style=" stroke:none;fill-rule:nonzero;fill:rgb(100%,100%,100%);fill-opacity:1;" d="M 0.484375 0 L 29.515625 0 L 29.515625 36.289062 L 0.484375 36.289062 Z M 0.484375 0 "/>
<path style=" stroke:none;fill-rule:nonzero;fill:rgb(100%,100%,100%);fill-opacity:1;" d="M 0.484375 0 L 29.515625 0 L 29.515625 29.03125 L 0.484375 29.03125 Z M 0.484375 0 "/>
<path style=" stroke:none;fill-rule:nonzero;fill:rgb(86.669922%,86.669922%,86.669922%);fill-opacity:1;" d="M 0.484375 0 L 29.515625 0 L 29.515625 29.03125 L 0.484375 29.03125 Z M 0.484375 0 "/>
</g>
<g clip-path="url(#clip2)" clip-rule="nonzero">
<path style=" stroke:none;fill-rule:nonzero;fill:rgb(0%,68.238831%,80.389404%);fill-opacity:1;" d="M 4.039062 28.746094 C 5.457031 28.746094 6.453125 28.035156 7.445312 27.464844 C 8.300781 27.039062 9.152344 26.46875 10.144531 26.042969 C 14.691406 23.621094 19.238281 21.0625 23.78125 18.5 C 25.203125 17.789062 27.050781 17.078125 28.042969 15.796875 C 28.328125 15.371094 28.753906 14.800781 28.613281 14.089844 C 28.1875 12.523438 26.199219 11.953125 24.917969 11.242188 C 21.792969 9.535156 18.527344 7.6875 15.402344 5.980469 C 14.265625 5.269531 12.5625 3.988281 11.140625 4.984375 C 10.570312 5.269531 10.289062 5.550781 10.144531 5.980469 C 10.003906 6.546875 10.144531 7.257812 10.144531 7.828125 L 10.144531 12.382812 C 10.144531 13.664062 10.003906 14.660156 10.855469 15.226562 C 11.140625 15.371094 11.707031 15.511719 12.132812 15.371094 C 13.554688 14.800781 13.128906 12.238281 13.128906 10.246094 L 13.128906 8.683594 C 15.542969 9.964844 17.957031 11.242188 20.375 12.382812 C 21.226562 12.808594 22.644531 13.234375 22.929688 14.375 C 23.214844 15.65625 20.515625 16.652344 19.664062 17.078125 L 9.863281 22.625 C 9.152344 23.054688 7.304688 24.476562 6.167969 24.050781 C 5.742188 23.90625 5.457031 23.480469 5.457031 23.195312 C 5.316406 22.625 5.316406 21.773438 5.316406 21.0625 L 5.316406 8.824219 C 5.316406 7.6875 5.175781 6.261719 5.601562 5.550781 C 6.59375 4.128906 8.867188 6.691406 9.578125 4.414062 C 9.71875 3.84375 9.433594 3.277344 9.152344 2.992188 C 8.582031 2.136719 6.027344 0.855469 5.03125 0.570312 C 4.746094 0.429688 4.039062 0.289062 3.613281 0.289062 C 1.195312 0.714844 1.765625 4.554688 1.765625 7.402344 L 1.765625 21.488281 C 1.765625 23.621094 1.480469 26.46875 2.332031 27.75 C 2.757812 28.460938 3.183594 28.460938 4.039062 28.746094 Z M 11.425781 19.496094 C 13.554688 19.496094 13.695312 16.792969 11.707031 16.367188 C 10.570312 16.222656 9.71875 17.363281 10.003906 18.359375 C 10.289062 19.070312 10.714844 19.210938 11.425781 19.496094 Z M 11.425781 19.496094 "/>
</g>
</g>
</svg>
