<?xml version="1.0" encoding="UTF-8"?>
<svg xmlns="http://www.w3.org/2000/svg" xmlns:xlink="http://www.w3.org/1999/xlink" width="30pt" height="30.000001pt" viewBox="0 0 30 30.000001" version="1.2">
<defs>
<clipPath id="clip1">
  <path d="M 0.484375 0 L 29.515625 0 L 29.515625 29.03125 L 0.484375 29.03125 Z M 0.484375 0 "/>
</clipPath>
<clipPath id="clip2">
  <path d="M 8 10 L 24.597656 10 L 24.597656 24.585938 L 8 24.585938 Z M 8 10 "/>
</clipPath>
<clipPath id="clip3">
  <path d="M 5.726562 4.265625 L 24.597656 4.265625 L 24.597656 21 L 5.726562 21 Z M 5.726562 4.265625 "/>
</clipPath>
</defs>
<g id="surface1">
<g clip-path="url(#clip1)" clip-rule="nonzero">
<path style=" stroke:none;fill-rule:nonzero;fill:rgb(19.999695%,19.999695%,19.999695%);fill-opacity:1;" d="M 15 0 C 6.984375 0 0.484375 6.5 0.484375 14.515625 C 0.484375 22.535156 6.984375 29.03125 15 29.03125 L 29.515625 29.03125 L 29.515625 14.515625 C 29.519531 6.5 23.015625 0 15 0 Z M 15 0 "/>
</g>
<g clip-path="url(#clip2)" clip-rule="nonzero">
<path style=" stroke:none;fill-rule:nonzero;fill:rgb(85.099792%,85.099792%,85.099792%);fill-opacity:1;" d="M 8.269531 19.539062 C 9.535156 22.503906 12.535156 24.585938 16.039062 24.585938 C 20.6875 24.585938 24.453125 20.917969 24.453125 16.390625 C 24.453125 14.574219 23.84375 12.890625 22.8125 11.53125 L 22.105469 10.714844 L 19.476562 14.523438 L 15.90625 14.265625 L 14.539062 17.121094 L 8.878906 17.546875 L 8.269531 19.539062 "/>
</g>
<g clip-path="url(#clip3)" clip-rule="nonzero">
<path style=" stroke:none;fill-rule:nonzero;fill:rgb(14.118958%,70.979309%,78.819275%);fill-opacity:1;" d="M 24.597656 4.265625 C 24.597656 4.265625 21.574219 6.878906 18.132812 7.398438 C 18.132812 7.398438 19.714844 8.421875 20.503906 8.933594 L 18.285156 12.140625 L 15.027344 11.910156 C 14.683594 11.882812 14.363281 12.070312 14.21875 12.371094 L 12.988281 14.941406 L 7.65625 15.34375 C 7.316406 15.367188 7.023438 15.59375 6.925781 15.914062 L 5.859375 19.390625 C 5.726562 19.816406 5.976562 20.265625 6.414062 20.390625 C 6.492188 20.414062 6.574219 20.425781 6.652344 20.425781 C 7.007812 20.425781 7.335938 20.199219 7.445312 19.851562 L 8.347656 16.90625 L 13.597656 16.511719 C 13.898438 16.492188 14.160156 16.3125 14.285156 16.050781 L 15.476562 13.554688 L 18.644531 13.78125 C 18.941406 13.804688 19.226562 13.667969 19.390625 13.429688 L 21.882812 9.824219 L 24.144531 11.285156 C 23.296875 7.996094 24.597656 4.265625 24.597656 4.265625 "/>
</g>
</g>
</svg>
