<?xml version="1.0" encoding="UTF-8"?>
<svg xmlns="http://www.w3.org/2000/svg" xmlns:xlink="http://www.w3.org/1999/xlink" width="75pt" height="37.5pt" viewBox="0 0 75 37.5" version="1.2">
<defs>
<clipPath id="clip1">
  <path d="M 17.65625 35 L 57.625 35 L 57.625 37.007812 L 17.65625 37.007812 Z M 17.65625 35 "/>
</clipPath>
</defs>
<g id="surface1">
<g clip-path="url(#clip1)" clip-rule="nonzero">
<path style=" stroke:none;fill-rule:nonzero;fill:rgb(100%,100%,100%);fill-opacity:1;" d="M 57.351562 35.089844 L 17.933594 35.089844 C 17.789062 35.089844 17.671875 35.203125 17.671875 35.347656 L 17.671875 37.007812 L 57.609375 37.007812 L 57.609375 35.347656 C 57.609375 35.203125 57.492188 35.089844 57.351562 35.089844 "/>
</g>
<path style=" stroke:none;fill-rule:nonzero;fill:rgb(100%,100%,100%);fill-opacity:1;" d="M 23.011719 28.992188 L 23.011719 29.597656 L 22.710938 29.597656 C 22.699219 29.597656 22.691406 29.609375 22.691406 29.621094 L 22.691406 30.851562 L 26.835938 30.851562 L 26.835938 29.621094 C 26.835938 29.609375 26.828125 29.597656 26.816406 29.597656 L 26.515625 29.597656 L 26.515625 28.992188 C 26.515625 28.980469 26.503906 28.972656 26.492188 28.972656 L 23.035156 28.972656 C 23.023438 28.972656 23.011719 28.980469 23.011719 28.992188 "/>
<path style=" stroke:none;fill-rule:nonzero;fill:rgb(100%,100%,100%);fill-opacity:1;" d="M 26.738281 13.519531 C 26.390625 13.519531 26.109375 13.242188 26.109375 12.898438 C 26.109375 12.554688 26.390625 12.273438 26.738281 12.273438 C 27.082031 12.273438 27.363281 12.554688 27.363281 12.898438 C 27.363281 13.242188 27.082031 13.519531 26.738281 13.519531 Z M 22.789062 13.519531 C 22.445312 13.519531 22.164062 13.242188 22.164062 12.898438 C 22.164062 12.554688 22.445312 12.273438 22.789062 12.273438 C 23.136719 12.273438 23.417969 12.554688 23.417969 12.898438 C 23.417969 13.242188 23.136719 13.519531 22.789062 13.519531 Z M 27.71875 12.898438 C 27.71875 12.359375 27.277344 11.921875 26.738281 11.921875 L 22.789062 11.921875 C 22.246094 11.921875 21.808594 12.359375 21.808594 12.898438 C 21.808594 13.433594 22.246094 13.871094 22.789062 13.871094 C 23.167969 13.871094 23.496094 13.65625 23.660156 13.34375 L 25.867188 13.34375 C 26.03125 13.65625 26.355469 13.871094 26.738281 13.871094 C 27.277344 13.871094 27.71875 13.433594 27.71875 12.898438 "/>
<path style=" stroke:none;fill-rule:nonzero;fill:rgb(100%,100%,100%);fill-opacity:1;" d="M 25.652344 13.742188 L 23.875 13.742188 C 23.746094 13.90625 23.582031 14.039062 23.398438 14.128906 L 23.398438 28.574219 L 26.128906 28.574219 L 26.128906 14.128906 C 25.945312 14.039062 25.78125 13.90625 25.652344 13.742188 "/>
<path style=" stroke:none;fill-rule:nonzero;fill:rgb(100%,100%,100%);fill-opacity:1;" d="M 29.714844 28.992188 L 29.714844 29.597656 L 29.414062 29.597656 C 29.402344 29.597656 29.394531 29.609375 29.394531 29.621094 L 29.394531 30.851562 L 33.539062 30.851562 L 33.539062 29.621094 C 33.539062 29.609375 33.53125 29.597656 33.519531 29.597656 L 33.21875 29.597656 L 33.21875 28.992188 C 33.21875 28.980469 33.207031 28.972656 33.195312 28.972656 L 29.738281 28.972656 C 29.726562 28.972656 29.714844 28.980469 29.714844 28.992188 "/>
<path style=" stroke:none;fill-rule:nonzero;fill:rgb(100%,100%,100%);fill-opacity:1;" d="M 33.441406 13.519531 C 33.09375 13.519531 32.8125 13.242188 32.8125 12.898438 C 32.8125 12.554688 33.09375 12.273438 33.441406 12.273438 C 33.785156 12.273438 34.066406 12.554688 34.066406 12.898438 C 34.066406 13.242188 33.785156 13.519531 33.441406 13.519531 Z M 29.492188 13.519531 C 29.148438 13.519531 28.867188 13.242188 28.867188 12.898438 C 28.867188 12.554688 29.148438 12.273438 29.492188 12.273438 C 29.839844 12.273438 30.121094 12.554688 30.121094 12.898438 C 30.121094 13.242188 29.839844 13.519531 29.492188 13.519531 Z M 34.421875 12.898438 C 34.421875 12.359375 33.980469 11.921875 33.441406 11.921875 L 29.492188 11.921875 C 28.949219 11.921875 28.511719 12.359375 28.511719 12.898438 C 28.511719 13.433594 28.949219 13.871094 29.492188 13.871094 C 29.871094 13.871094 30.199219 13.65625 30.363281 13.34375 L 32.570312 13.34375 C 32.734375 13.65625 33.058594 13.871094 33.441406 13.871094 C 33.980469 13.871094 34.421875 13.433594 34.421875 12.898438 "/>
<path style=" stroke:none;fill-rule:nonzero;fill:rgb(100%,100%,100%);fill-opacity:1;" d="M 32.355469 13.742188 L 30.578125 13.742188 C 30.449219 13.90625 30.285156 14.039062 30.101562 14.128906 L 30.101562 28.574219 L 32.832031 28.574219 L 32.832031 14.128906 C 32.648438 14.039062 32.484375 13.90625 32.355469 13.742188 "/>
<path style=" stroke:none;fill-rule:nonzero;fill:rgb(100%,100%,100%);fill-opacity:1;" d="M 48.765625 28.992188 L 48.765625 29.597656 L 48.46875 29.597656 C 48.453125 29.597656 48.445312 29.609375 48.445312 29.621094 L 48.445312 30.851562 L 52.589844 30.851562 L 52.589844 29.621094 C 52.589844 29.609375 52.582031 29.597656 52.570312 29.597656 L 52.269531 29.597656 L 52.269531 28.992188 C 52.269531 28.980469 52.261719 28.972656 52.25 28.972656 L 48.789062 28.972656 C 48.777344 28.972656 48.765625 28.980469 48.765625 28.992188 "/>
<path style=" stroke:none;fill-rule:nonzero;fill:rgb(100%,100%,100%);fill-opacity:1;" d="M 52.492188 13.519531 C 52.144531 13.519531 51.863281 13.242188 51.863281 12.898438 C 51.863281 12.554688 52.144531 12.273438 52.492188 12.273438 C 52.839844 12.273438 53.117188 12.554688 53.117188 12.898438 C 53.117188 13.242188 52.839844 13.519531 52.492188 13.519531 Z M 48.546875 13.519531 C 48.199219 13.519531 47.917969 13.242188 47.917969 12.898438 C 47.917969 12.554688 48.199219 12.273438 48.546875 12.273438 C 48.890625 12.273438 49.171875 12.554688 49.171875 12.898438 C 49.171875 13.242188 48.890625 13.519531 48.546875 13.519531 Z M 52.492188 11.921875 L 48.546875 11.921875 C 48.003906 11.921875 47.5625 12.359375 47.5625 12.898438 C 47.5625 13.433594 48.003906 13.871094 48.546875 13.871094 C 48.925781 13.871094 49.25 13.65625 49.414062 13.34375 L 51.625 13.34375 C 51.785156 13.65625 52.113281 13.871094 52.492188 13.871094 C 53.035156 13.871094 53.472656 13.433594 53.472656 12.898438 C 53.472656 12.359375 53.035156 11.921875 52.492188 11.921875 "/>
<path style=" stroke:none;fill-rule:nonzero;fill:rgb(100%,100%,100%);fill-opacity:1;" d="M 51.40625 13.742188 L 49.632812 13.742188 C 49.503906 13.90625 49.339844 14.039062 49.152344 14.128906 L 49.152344 28.574219 L 51.882812 28.574219 L 51.882812 14.128906 C 51.699219 14.039062 51.535156 13.90625 51.40625 13.742188 "/>
<path style=" stroke:none;fill-rule:nonzero;fill:rgb(100%,100%,100%);fill-opacity:1;" d="M 42.0625 28.992188 L 42.0625 29.597656 L 41.761719 29.597656 C 41.75 29.597656 41.742188 29.609375 41.742188 29.621094 L 41.742188 30.851562 L 45.886719 30.851562 L 45.886719 29.621094 C 45.886719 29.609375 45.878906 29.597656 45.867188 29.597656 L 45.566406 29.597656 L 45.566406 28.992188 C 45.566406 28.980469 45.558594 28.972656 45.546875 28.972656 L 42.085938 28.972656 C 42.074219 28.972656 42.0625 28.980469 42.0625 28.992188 "/>
<path style=" stroke:none;fill-rule:nonzero;fill:rgb(100%,100%,100%);fill-opacity:1;" d="M 45.789062 13.519531 C 45.441406 13.519531 45.160156 13.242188 45.160156 12.898438 C 45.160156 12.554688 45.441406 12.273438 45.789062 12.273438 C 46.132812 12.273438 46.414062 12.554688 46.414062 12.898438 C 46.414062 13.242188 46.132812 13.519531 45.789062 13.519531 Z M 41.84375 13.519531 C 41.496094 13.519531 41.214844 13.242188 41.214844 12.898438 C 41.214844 12.554688 41.496094 12.273438 41.84375 12.273438 C 42.1875 12.273438 42.46875 12.554688 42.46875 12.898438 C 42.46875 13.242188 42.1875 13.519531 41.84375 13.519531 Z M 46.769531 12.898438 C 46.769531 12.359375 46.332031 11.921875 45.789062 11.921875 L 41.84375 11.921875 C 41.300781 11.921875 40.859375 12.359375 40.859375 12.898438 C 40.859375 13.433594 41.300781 13.871094 41.84375 13.871094 C 42.222656 13.871094 42.546875 13.65625 42.710938 13.34375 L 44.921875 13.34375 C 45.082031 13.65625 45.410156 13.871094 45.789062 13.871094 C 46.332031 13.871094 46.769531 13.433594 46.769531 12.898438 "/>
<path style=" stroke:none;fill-rule:nonzero;fill:rgb(100%,100%,100%);fill-opacity:1;" d="M 44.703125 13.742188 L 42.929688 13.742188 C 42.796875 13.90625 42.636719 14.039062 42.449219 14.128906 L 42.449219 28.574219 L 45.179688 28.574219 L 45.179688 14.128906 C 44.996094 14.039062 44.832031 13.90625 44.703125 13.742188 "/>
<path style=" stroke:none;fill-rule:nonzero;fill:rgb(100%,100%,100%);fill-opacity:1;" d="M 37.640625 0.902344 L 51.730469 8.246094 L 23.550781 8.246094 Z M 37.640625 0 L 20.296875 9.042969 L 54.984375 9.042969 L 37.640625 0 "/>
<path style=" stroke:none;fill-rule:nonzero;fill:rgb(100%,100%,100%);fill-opacity:1;" d="M 54.132812 11.378906 L 54.984375 9.523438 L 20.296875 9.523438 L 21.148438 11.378906 L 54.132812 11.378906 "/>
<path style=" stroke:none;fill-rule:nonzero;fill:rgb(100%,100%,100%);fill-opacity:1;" d="M 33.808594 6.660156 C 33.761719 6.710938 33.6875 6.734375 33.585938 6.734375 L 33.183594 6.734375 L 33.183594 6.246094 L 33.558594 6.246094 C 33.683594 6.246094 33.765625 6.273438 33.8125 6.324219 C 33.855469 6.375 33.878906 6.433594 33.878906 6.496094 C 33.878906 6.554688 33.855469 6.613281 33.808594 6.660156 Z M 33.183594 5.21875 L 33.554688 5.21875 C 33.738281 5.21875 33.832031 5.292969 33.832031 5.445312 C 33.832031 5.5 33.8125 5.550781 33.773438 5.601562 C 33.734375 5.648438 33.664062 5.671875 33.566406 5.671875 L 33.183594 5.671875 Z M 34.160156 5.9375 C 34.3125 5.894531 34.425781 5.820312 34.5 5.710938 C 34.578125 5.601562 34.613281 5.480469 34.613281 5.347656 C 34.613281 5.164062 34.550781 5 34.417969 4.855469 C 34.289062 4.714844 34.078125 4.640625 33.792969 4.640625 L 32.414062 4.640625 L 32.414062 7.335938 L 33.707031 7.335938 C 34.113281 7.335938 34.378906 7.257812 34.5 7.097656 C 34.625 6.941406 34.6875 6.761719 34.6875 6.5625 C 34.6875 6.230469 34.511719 6.019531 34.160156 5.9375 "/>
<path style=" stroke:none;fill-rule:nonzero;fill:rgb(100%,100%,100%);fill-opacity:1;" d="M 35.789062 6.214844 L 36.007812 5.433594 L 36.226562 6.214844 Z M 35.644531 4.640625 L 34.808594 7.335938 L 35.484375 7.335938 L 35.648438 6.804688 L 36.375 6.804688 L 36.527344 7.335938 L 37.378906 7.335938 L 36.527344 4.640625 L 35.644531 4.640625 "/>
<path style=" stroke:none;fill-rule:nonzero;fill:rgb(100%,100%,100%);fill-opacity:1;" d="M 39.269531 5.4375 C 39.269531 5.679688 39.289062 5.914062 39.332031 6.144531 C 39.269531 5.996094 39.171875 5.824219 39.046875 5.628906 L 38.414062 4.640625 L 37.625 4.640625 L 37.625 7.335938 L 38.304688 7.335938 L 38.304688 6.03125 C 38.304688 5.910156 38.28125 5.761719 38.238281 5.589844 C 38.335938 5.808594 38.429688 5.992188 38.527344 6.144531 L 39.269531 7.335938 L 39.945312 7.335938 L 39.945312 4.640625 L 39.269531 4.640625 L 39.269531 5.4375 "/>
<path style=" stroke:none;fill-rule:nonzero;fill:rgb(100%,100%,100%);fill-opacity:1;" d="M 42.015625 5.628906 L 42.703125 4.640625 L 41.953125 4.640625 L 41.207031 5.753906 L 41.207031 4.640625 L 40.421875 4.640625 L 40.421875 7.335938 L 41.207031 7.335938 L 41.207031 6.714844 L 41.488281 6.316406 L 41.957031 7.335938 L 42.867188 7.335938 L 42.015625 5.628906 "/>
<path style=" stroke:none;fill-rule:nonzero;fill:rgb(100%,100%,100%);fill-opacity:1;" d="M 55.777344 33.429688 C 55.777344 33.285156 55.660156 33.171875 55.519531 33.171875 L 19.765625 33.171875 C 19.621094 33.171875 19.503906 33.285156 19.503906 33.429688 L 19.503906 34.6875 L 55.777344 34.6875 L 55.777344 33.429688 "/>
<path style=" stroke:none;fill-rule:nonzero;fill:rgb(100%,100%,100%);fill-opacity:1;" d="M 53.464844 31.511719 C 53.464844 31.367188 53.347656 31.253906 53.203125 31.253906 L 22.078125 31.253906 C 21.933594 31.253906 21.820312 31.367188 21.820312 31.511719 L 21.820312 32.769531 L 53.464844 32.769531 L 53.464844 31.511719 "/>
<path style=" stroke:none;fill-rule:nonzero;fill:rgb(100%,100%,100%);fill-opacity:1;" d="M 37.777344 23.070312 C 37.125 23.070312 36.722656 22.796875 36.558594 22.25 L 34.683594 22.597656 C 35.015625 23.796875 35.828125 24.472656 37.125 24.625 L 37.125 25.546875 L 38.152344 25.546875 L 38.152344 24.625 C 38.914062 24.542969 39.511719 24.292969 39.949219 23.882812 C 40.382812 23.472656 40.597656 22.964844 40.597656 22.359375 C 40.597656 21.925781 40.488281 21.550781 40.265625 21.234375 C 40.039062 20.917969 39.761719 20.691406 39.425781 20.558594 C 39.085938 20.425781 38.53125 20.273438 37.757812 20.105469 C 37.417969 20.03125 37.210938 19.957031 37.132812 19.882812 C 37.058594 19.8125 37.019531 19.722656 37.019531 19.621094 C 37.019531 19.335938 37.242188 19.195312 37.6875 19.195312 C 38.214844 19.195312 38.566406 19.417969 38.738281 19.871094 L 40.417969 19.347656 C 40.0625 18.386719 39.308594 17.839844 38.152344 17.714844 L 38.152344 16.824219 L 37.125 16.824219 L 37.125 17.734375 C 36.410156 17.839844 35.882812 18.101562 35.535156 18.507812 C 35.1875 18.917969 35.015625 19.390625 35.015625 19.917969 C 35.015625 20.398438 35.171875 20.820312 35.488281 21.191406 C 35.804688 21.558594 36.554688 21.863281 37.734375 22.101562 C 38.035156 22.164062 38.246094 22.234375 38.363281 22.316406 C 38.480469 22.398438 38.539062 22.511719 38.539062 22.65625 C 38.539062 22.933594 38.285156 23.070312 37.777344 23.070312 "/>
</g>
</svg>
