<?xml version="1.0" encoding="UTF-8"?>
<svg xmlns="http://www.w3.org/2000/svg" xmlns:xlink="http://www.w3.org/1999/xlink" width="75pt" height="37.5pt" viewBox="0 0 75 37.5" version="1.2">
<defs>
<clipPath id="clip1">
  <path d="M 17.65625 35 L 57.625 35 L 57.625 37.007812 L 17.65625 37.007812 Z M 17.65625 35 "/>
</clipPath>
</defs>
<g id="surface1">
<g clip-path="url(#clip1)" clip-rule="nonzero">
<path style=" stroke:none;fill-rule:nonzero;fill:rgb(6.269836%,5.879211%,5.099487%);fill-opacity:1;" d="M 57.640625 35.089844 L 17.933594 35.089844 C 17.789062 35.089844 17.671875 35.203125 17.671875 35.347656 L 17.671875 37.007812 L 57.902344 37.007812 L 57.902344 35.347656 C 57.902344 35.203125 57.785156 35.089844 57.640625 35.089844 "/>
</g>
<path style=" stroke:none;fill-rule:nonzero;fill:rgb(6.269836%,5.879211%,5.099487%);fill-opacity:1;" d="M 23.050781 28.992188 L 23.050781 29.597656 L 22.75 29.597656 C 22.738281 29.597656 22.726562 29.609375 22.726562 29.621094 L 22.726562 30.851562 L 26.902344 30.851562 L 26.902344 29.621094 C 26.902344 29.609375 26.894531 29.597656 26.882812 29.597656 L 26.578125 29.597656 L 26.578125 28.992188 C 26.578125 28.980469 26.570312 28.972656 26.558594 28.972656 L 23.074219 28.972656 C 23.0625 28.972656 23.050781 28.980469 23.050781 28.992188 "/>
<path style=" stroke:none;fill-rule:nonzero;fill:rgb(6.269836%,5.879211%,5.099487%);fill-opacity:1;" d="M 26.800781 13.519531 C 26.453125 13.519531 26.171875 13.242188 26.171875 12.898438 C 26.171875 12.554688 26.453125 12.273438 26.800781 12.273438 C 27.152344 12.273438 27.433594 12.554688 27.433594 12.898438 C 27.433594 13.242188 27.152344 13.519531 26.800781 13.519531 Z M 22.828125 13.519531 C 22.476562 13.519531 22.195312 13.242188 22.195312 12.898438 C 22.195312 12.554688 22.476562 12.273438 22.828125 12.273438 C 23.175781 12.273438 23.460938 12.554688 23.460938 12.898438 C 23.460938 13.242188 23.175781 13.519531 22.828125 13.519531 Z M 27.792969 12.898438 C 27.792969 12.359375 27.347656 11.921875 26.800781 11.921875 L 22.828125 11.921875 C 22.28125 11.921875 21.839844 12.359375 21.839844 12.898438 C 21.839844 13.433594 22.28125 13.871094 22.828125 13.871094 C 23.210938 13.871094 23.539062 13.65625 23.703125 13.34375 L 25.929688 13.34375 C 26.09375 13.65625 26.421875 13.871094 26.800781 13.871094 C 27.347656 13.871094 27.792969 13.433594 27.792969 12.898438 "/>
<path style=" stroke:none;fill-rule:nonzero;fill:rgb(6.269836%,5.879211%,5.099487%);fill-opacity:1;" d="M 25.707031 13.742188 L 23.921875 13.742188 C 23.789062 13.90625 23.625 14.039062 23.441406 14.128906 L 23.441406 28.574219 L 26.191406 28.574219 L 26.191406 14.128906 C 26.003906 14.039062 25.839844 13.90625 25.707031 13.742188 "/>
<path style=" stroke:none;fill-rule:nonzero;fill:rgb(6.269836%,5.879211%,5.099487%);fill-opacity:1;" d="M 29.804688 28.992188 L 29.804688 29.597656 L 29.5 29.597656 C 29.488281 29.597656 29.480469 29.609375 29.480469 29.621094 L 29.480469 30.851562 L 33.65625 30.851562 L 33.65625 29.621094 C 33.65625 29.609375 33.644531 29.597656 33.632812 29.597656 L 33.332031 29.597656 L 33.332031 28.992188 C 33.332031 28.980469 33.320312 28.972656 33.308594 28.972656 L 29.824219 28.972656 C 29.8125 28.972656 29.804688 28.980469 29.804688 28.992188 "/>
<path style=" stroke:none;fill-rule:nonzero;fill:rgb(6.269836%,5.879211%,5.099487%);fill-opacity:1;" d="M 33.554688 13.519531 C 33.207031 13.519531 32.921875 13.242188 32.921875 12.898438 C 32.921875 12.554688 33.207031 12.273438 33.554688 12.273438 C 33.902344 12.273438 34.1875 12.554688 34.1875 12.898438 C 34.1875 13.242188 33.902344 13.519531 33.554688 13.519531 Z M 29.578125 13.519531 C 29.230469 13.519531 28.949219 13.242188 28.949219 12.898438 C 28.949219 12.554688 29.230469 12.273438 29.578125 12.273438 C 29.929688 12.273438 30.210938 12.554688 30.210938 12.898438 C 30.210938 13.242188 29.929688 13.519531 29.578125 13.519531 Z M 34.542969 12.898438 C 34.542969 12.359375 34.101562 11.921875 33.554688 11.921875 L 29.578125 11.921875 C 29.03125 11.921875 28.589844 12.359375 28.589844 12.898438 C 28.589844 13.433594 29.03125 13.871094 29.578125 13.871094 C 29.960938 13.871094 30.289062 13.65625 30.453125 13.34375 L 32.679688 13.34375 C 32.84375 13.65625 33.171875 13.871094 33.554688 13.871094 C 34.101562 13.871094 34.542969 13.433594 34.542969 12.898438 "/>
<path style=" stroke:none;fill-rule:nonzero;fill:rgb(6.269836%,5.879211%,5.099487%);fill-opacity:1;" d="M 32.460938 13.742188 L 30.671875 13.742188 C 30.542969 13.90625 30.378906 14.039062 30.191406 14.128906 L 30.191406 28.574219 L 32.941406 28.574219 L 32.941406 14.128906 C 32.757812 14.039062 32.589844 13.90625 32.460938 13.742188 "/>
<path style=" stroke:none;fill-rule:nonzero;fill:rgb(6.269836%,5.879211%,5.099487%);fill-opacity:1;" d="M 48.992188 28.992188 L 48.992188 29.597656 L 48.691406 29.597656 C 48.679688 29.597656 48.667969 29.609375 48.667969 29.621094 L 48.667969 30.851562 L 52.847656 30.851562 L 52.847656 29.621094 C 52.847656 29.609375 52.835938 29.597656 52.824219 29.597656 L 52.523438 29.597656 L 52.523438 28.992188 C 52.523438 28.980469 52.511719 28.972656 52.5 28.972656 L 49.015625 28.972656 C 49.003906 28.972656 48.992188 28.980469 48.992188 28.992188 "/>
<path style=" stroke:none;fill-rule:nonzero;fill:rgb(6.269836%,5.879211%,5.099487%);fill-opacity:1;" d="M 52.746094 13.519531 C 52.398438 13.519531 52.113281 13.242188 52.113281 12.898438 C 52.113281 12.554688 52.398438 12.273438 52.746094 12.273438 C 53.09375 12.273438 53.378906 12.554688 53.378906 12.898438 C 53.378906 13.242188 53.09375 13.519531 52.746094 13.519531 Z M 48.769531 13.519531 C 48.421875 13.519531 48.136719 13.242188 48.136719 12.898438 C 48.136719 12.554688 48.421875 12.273438 48.769531 12.273438 C 49.121094 12.273438 49.402344 12.554688 49.402344 12.898438 C 49.402344 13.242188 49.121094 13.519531 48.769531 13.519531 Z M 52.746094 11.921875 L 48.769531 11.921875 C 48.222656 11.921875 47.78125 12.359375 47.78125 12.898438 C 47.78125 13.433594 48.222656 13.871094 48.769531 13.871094 C 49.152344 13.871094 49.480469 13.65625 49.644531 13.34375 L 51.871094 13.34375 C 52.035156 13.65625 52.363281 13.871094 52.746094 13.871094 C 53.292969 13.871094 53.734375 13.433594 53.734375 12.898438 C 53.734375 12.359375 53.292969 11.921875 52.746094 11.921875 "/>
<path style=" stroke:none;fill-rule:nonzero;fill:rgb(6.269836%,5.879211%,5.099487%);fill-opacity:1;" d="M 51.652344 13.742188 L 49.863281 13.742188 C 49.734375 13.90625 49.570312 14.039062 49.382812 14.128906 L 49.382812 28.574219 L 52.132812 28.574219 L 52.132812 14.128906 C 51.945312 14.039062 51.78125 13.90625 51.652344 13.742188 "/>
<path style=" stroke:none;fill-rule:nonzero;fill:rgb(6.269836%,5.879211%,5.099487%);fill-opacity:1;" d="M 42.242188 28.992188 L 42.242188 29.597656 L 41.9375 29.597656 C 41.925781 29.597656 41.917969 29.609375 41.917969 29.621094 L 41.917969 30.851562 L 46.09375 30.851562 L 46.09375 29.621094 C 46.09375 29.609375 46.085938 29.597656 46.074219 29.597656 L 45.769531 29.597656 L 45.769531 28.992188 C 45.769531 28.980469 45.761719 28.972656 45.75 28.972656 L 42.261719 28.972656 C 42.25 28.972656 42.242188 28.980469 42.242188 28.992188 "/>
<path style=" stroke:none;fill-rule:nonzero;fill:rgb(6.269836%,5.879211%,5.099487%);fill-opacity:1;" d="M 45.992188 13.519531 C 45.644531 13.519531 45.363281 13.242188 45.363281 12.898438 C 45.363281 12.554688 45.644531 12.273438 45.992188 12.273438 C 46.34375 12.273438 46.625 12.554688 46.625 12.898438 C 46.625 13.242188 46.34375 13.519531 45.992188 13.519531 Z M 42.019531 13.519531 C 41.667969 13.519531 41.386719 13.242188 41.386719 12.898438 C 41.386719 12.554688 41.667969 12.273438 42.019531 12.273438 C 42.367188 12.273438 42.648438 12.554688 42.648438 12.898438 C 42.648438 13.242188 42.367188 13.519531 42.019531 13.519531 Z M 46.984375 12.898438 C 46.984375 12.359375 46.539062 11.921875 45.992188 11.921875 L 42.019531 11.921875 C 41.472656 11.921875 41.027344 12.359375 41.027344 12.898438 C 41.027344 13.433594 41.472656 13.871094 42.019531 13.871094 C 42.398438 13.871094 42.726562 13.65625 42.894531 13.34375 L 45.117188 13.34375 C 45.285156 13.65625 45.609375 13.871094 45.992188 13.871094 C 46.539062 13.871094 46.984375 13.433594 46.984375 12.898438 "/>
<path style=" stroke:none;fill-rule:nonzero;fill:rgb(6.269836%,5.879211%,5.099487%);fill-opacity:1;" d="M 44.898438 13.742188 L 43.113281 13.742188 C 42.980469 13.90625 42.816406 14.039062 42.632812 14.128906 L 42.632812 28.574219 L 45.378906 28.574219 L 45.378906 14.128906 C 45.195312 14.039062 45.03125 13.90625 44.898438 13.742188 "/>
<path style=" stroke:none;fill-rule:nonzero;fill:rgb(6.269836%,5.879211%,5.099487%);fill-opacity:1;" d="M 37.785156 0.902344 L 51.976562 8.246094 L 23.59375 8.246094 Z M 37.785156 0 L 20.316406 9.042969 L 55.257812 9.042969 L 37.785156 0 "/>
<path style=" stroke:none;fill-rule:nonzero;fill:rgb(6.269836%,5.879211%,5.099487%);fill-opacity:1;" d="M 54.398438 11.378906 L 55.257812 9.523438 L 20.316406 9.523438 L 21.175781 11.378906 L 54.398438 11.378906 "/>
<path style=" stroke:none;fill-rule:nonzero;fill:rgb(6.269836%,5.879211%,5.099487%);fill-opacity:1;" d="M 33.925781 6.660156 C 33.878906 6.710938 33.804688 6.734375 33.703125 6.734375 L 33.296875 6.734375 L 33.296875 6.246094 L 33.675781 6.246094 C 33.796875 6.246094 33.882812 6.273438 33.929688 6.324219 C 33.976562 6.375 33.996094 6.433594 33.996094 6.496094 C 33.996094 6.554688 33.972656 6.613281 33.925781 6.660156 Z M 33.296875 5.21875 L 33.667969 5.21875 C 33.855469 5.21875 33.949219 5.292969 33.949219 5.445312 C 33.949219 5.5 33.929688 5.550781 33.890625 5.601562 C 33.851562 5.648438 33.78125 5.671875 33.683594 5.671875 L 33.296875 5.671875 Z M 34.28125 5.9375 C 34.433594 5.894531 34.546875 5.820312 34.625 5.710938 C 34.699219 5.601562 34.738281 5.480469 34.738281 5.347656 C 34.738281 5.164062 34.671875 5 34.539062 4.855469 C 34.410156 4.714844 34.199219 4.640625 33.910156 4.640625 L 32.523438 4.640625 L 32.523438 7.335938 L 33.824219 7.335938 C 34.230469 7.335938 34.5 7.257812 34.625 7.097656 C 34.75 6.941406 34.8125 6.761719 34.8125 6.5625 C 34.8125 6.230469 34.632812 6.019531 34.28125 5.9375 "/>
<path style=" stroke:none;fill-rule:nonzero;fill:rgb(6.269836%,5.879211%,5.099487%);fill-opacity:1;" d="M 35.921875 6.214844 L 36.140625 5.433594 L 36.363281 6.214844 Z M 35.777344 4.640625 L 34.933594 7.335938 L 35.613281 7.335938 L 35.777344 6.804688 L 36.511719 6.804688 L 36.664062 7.335938 L 37.519531 7.335938 L 36.664062 4.640625 L 35.777344 4.640625 "/>
<path style=" stroke:none;fill-rule:nonzero;fill:rgb(6.269836%,5.879211%,5.099487%);fill-opacity:1;" d="M 39.425781 5.4375 C 39.425781 5.679688 39.449219 5.914062 39.492188 6.144531 C 39.425781 5.996094 39.328125 5.824219 39.203125 5.628906 L 38.566406 4.640625 L 37.773438 4.640625 L 37.773438 7.335938 L 38.453125 7.335938 L 38.453125 6.03125 C 38.453125 5.910156 38.429688 5.761719 38.386719 5.589844 C 38.484375 5.808594 38.582031 5.992188 38.675781 6.144531 L 39.425781 7.335938 L 40.109375 7.335938 L 40.109375 4.640625 L 39.425781 4.640625 L 39.425781 5.4375 "/>
<path style=" stroke:none;fill-rule:nonzero;fill:rgb(6.269836%,5.879211%,5.099487%);fill-opacity:1;" d="M 42.195312 5.628906 L 42.882812 4.640625 L 42.128906 4.640625 L 41.375 5.753906 L 41.375 4.640625 L 40.585938 4.640625 L 40.585938 7.335938 L 41.375 7.335938 L 41.375 6.714844 L 41.660156 6.316406 L 42.132812 7.335938 L 43.050781 7.335938 L 42.195312 5.628906 "/>
<path style=" stroke:none;fill-rule:nonzero;fill:rgb(6.269836%,5.879211%,5.099487%);fill-opacity:1;" d="M 56.054688 33.429688 C 56.054688 33.285156 55.9375 33.171875 55.792969 33.171875 L 19.777344 33.171875 C 19.632812 33.171875 19.515625 33.285156 19.515625 33.429688 L 19.515625 34.6875 L 56.054688 34.6875 L 56.054688 33.429688 "/>
<path style=" stroke:none;fill-rule:nonzero;fill:rgb(6.269836%,5.879211%,5.099487%);fill-opacity:1;" d="M 53.722656 31.511719 C 53.722656 31.367188 53.605469 31.253906 53.460938 31.253906 L 22.113281 31.253906 C 21.964844 31.253906 21.847656 31.367188 21.847656 31.511719 L 21.847656 32.769531 L 53.722656 32.769531 L 53.722656 31.511719 "/>
<path style=" stroke:none;fill-rule:nonzero;fill:rgb(6.269836%,5.879211%,5.099487%);fill-opacity:1;" d="M 37.925781 23.070312 C 37.269531 23.070312 36.859375 22.796875 36.699219 22.25 L 34.804688 22.597656 C 35.140625 23.796875 35.960938 24.472656 37.265625 24.625 L 37.265625 25.546875 L 38.300781 25.546875 L 38.300781 24.625 C 39.070312 24.542969 39.671875 24.292969 40.109375 23.882812 C 40.546875 23.472656 40.765625 22.964844 40.765625 22.359375 C 40.765625 21.925781 40.652344 21.550781 40.429688 21.234375 C 40.203125 20.917969 39.921875 20.691406 39.582031 20.558594 C 39.242188 20.425781 38.683594 20.273438 37.902344 20.105469 C 37.558594 20.03125 37.351562 19.957031 37.277344 19.882812 C 37.199219 19.8125 37.164062 19.722656 37.164062 19.621094 C 37.164062 19.335938 37.386719 19.195312 37.832031 19.195312 C 38.367188 19.195312 38.71875 19.417969 38.890625 19.871094 L 40.582031 19.347656 C 40.226562 18.386719 39.464844 17.839844 38.300781 17.714844 L 38.300781 16.824219 L 37.265625 16.824219 L 37.265625 17.734375 C 36.546875 17.839844 36.015625 18.101562 35.664062 18.507812 C 35.316406 18.917969 35.140625 19.390625 35.140625 19.917969 C 35.140625 20.398438 35.300781 20.820312 35.621094 21.191406 C 35.9375 21.558594 36.691406 21.863281 37.882812 22.101562 C 38.183594 22.164062 38.394531 22.234375 38.511719 22.316406 C 38.632812 22.398438 38.691406 22.511719 38.691406 22.65625 C 38.691406 22.933594 38.4375 23.070312 37.925781 23.070312 "/>
</g>
</svg>
