<?xml version="1.0" encoding="UTF-8"?>
<svg xmlns="http://www.w3.org/2000/svg" xmlns:xlink="http://www.w3.org/1999/xlink" width="75pt" height="37.5pt" viewBox="0 0 75 37.5" version="1.2">
<defs>
<clipPath id="clip1">
  <path d="M 19.738281 0.738281 L 55.261719 0.738281 L 55.261719 36.265625 L 19.738281 36.265625 Z M 19.738281 0.738281 "/>
</clipPath>
</defs>
<g id="surface1">
<path style=" stroke:none;fill-rule:nonzero;fill:rgb(0%,0%,0%);fill-opacity:1;" d="M 44.902344 8.140625 C 44.109375 8.140625 43.367188 8.449219 42.808594 9.007812 L 39.589844 12.222656 C 38.820312 12.992188 38.578125 14.085938 38.839844 15.074219 L 41.164062 12.746094 C 41.738281 12.171875 42.679688 12.171875 43.257812 12.746094 C 43.832031 13.320312 43.832031 14.265625 43.257812 14.839844 L 40.933594 17.167969 C 41.917969 17.425781 43.007812 17.183594 43.78125 16.410156 L 46.996094 13.195312 C 48.148438 12.042969 48.148438 10.164062 46.996094 9.007812 C 46.433594 8.449219 45.691406 8.140625 44.902344 8.140625 Z M 44.902344 8.140625 "/>
<path style=" stroke:none;fill-rule:nonzero;fill:rgb(0%,0%,0%);fill-opacity:1;" d="M 31.742188 24.257812 C 31.167969 23.683594 31.167969 22.742188 31.742188 22.167969 L 34.070312 19.839844 C 33.824219 19.773438 33.574219 19.730469 33.3125 19.730469 C 32.519531 19.730469 31.777344 20.039062 31.21875 20.597656 L 28.003906 23.8125 C 26.847656 24.964844 26.851562 26.84375 28.003906 27.996094 C 29.160156 29.152344 31.035156 29.152344 32.191406 28 L 35.40625 24.785156 C 36.175781 24.011719 36.421875 22.921875 36.160156 21.933594 L 33.835938 24.257812 C 33.261719 24.835938 32.320312 24.835938 31.742188 24.257812 Z M 31.742188 24.257812 "/>
<g clip-path="url(#clip1)" clip-rule="nonzero">
<path style=" stroke:none;fill-rule:nonzero;fill:rgb(0%,0%,0%);fill-opacity:1;" d="M 52.300781 0.738281 L 22.699219 0.738281 C 21.070312 0.738281 19.738281 2.074219 19.738281 3.699219 L 19.738281 33.304688 C 19.738281 34.933594 21.070312 36.265625 22.699219 36.265625 L 52.300781 36.265625 C 53.929688 36.265625 55.261719 34.933594 55.261719 33.304688 L 55.261719 3.699219 C 55.261719 2.074219 53.929688 0.738281 52.300781 0.738281 Z M 49.085938 15.289062 L 45.871094 18.503906 C 43.925781 20.449219 40.964844 20.738281 38.695312 19.402344 L 38.398438 19.699219 C 39.734375 21.96875 39.449219 24.929688 37.5 26.878906 L 34.285156 30.09375 C 31.972656 32.402344 28.222656 32.402344 25.914062 30.089844 C 23.601562 27.777344 23.601562 24.03125 25.914062 21.714844 L 29.125 18.503906 C 31.074219 16.554688 34.035156 16.269531 36.304688 17.605469 L 36.601562 17.308594 C 35.265625 15.039062 35.550781 12.078125 37.5 10.128906 L 40.714844 6.914062 C 43.027344 4.601562 46.773438 4.601562 49.085938 6.914062 C 51.398438 9.226562 51.402344 12.976562 49.085938 15.289062 Z M 49.085938 15.289062 "/>
</g>
</g>
</svg>
