<?xml version="1.0" encoding="UTF-8"?>
<svg xmlns="http://www.w3.org/2000/svg" xmlns:xlink="http://www.w3.org/1999/xlink" width="224.87999pt" height="225pt" viewBox="0 0 224.87999 225" version="1.2">
<defs>
<clipPath id="clip1">
  <path d="M 0 0.0585938 L 224.761719 0.0585938 L 224.761719 224.9375 L 0 224.9375 Z M 0 0.0585938 "/>
</clipPath>
<clipPath id="clip2">
  <path d="M 112 0.0585938 L 193 0.0585938 L 193 49 L 112 49 Z M 112 0.0585938 "/>
</clipPath>
<clipPath id="clip3">
  <path d="M 32 0.0585938 L 113 0.0585938 L 113 49 L 32 49 Z M 32 0.0585938 "/>
</clipPath>
<clipPath id="clip4">
  <path d="M 176 32 L 224.761719 32 L 224.761719 193 L 176 193 Z M 176 32 "/>
</clipPath>
</defs>
<g id="surface1">
<g clip-path="url(#clip1)" clip-rule="nonzero">
<path style=" stroke:none;fill-rule:nonzero;fill:rgb(59.609985%,74.508667%,38.038635%);fill-opacity:1;" d="M 224.878906 112.5 C 224.878906 114.339844 224.835938 116.179688 224.746094 118.015625 C 224.652344 119.855469 224.519531 121.691406 224.339844 123.519531 C 224.15625 125.351562 223.933594 127.179688 223.664062 129 C 223.394531 130.820312 223.078125 132.632812 222.71875 134.4375 C 222.359375 136.242188 221.957031 138.035156 221.511719 139.820312 C 221.0625 141.605469 220.574219 143.378906 220.039062 145.140625 C 219.503906 146.902344 218.925781 148.648438 218.308594 150.378906 C 217.6875 152.113281 217.023438 153.828125 216.320312 155.527344 C 215.617188 157.230469 214.871094 158.910156 214.085938 160.574219 C 213.296875 162.238281 212.46875 163.882812 211.601562 165.503906 C 210.734375 167.125 209.828125 168.726562 208.882812 170.304688 C 207.9375 171.882812 206.953125 173.4375 205.929688 174.96875 C 204.90625 176.5 203.847656 178.003906 202.753906 179.480469 C 201.65625 180.957031 200.523438 182.410156 199.355469 183.832031 C 198.191406 185.253906 196.988281 186.648438 195.753906 188.011719 C 194.515625 189.375 193.25 190.707031 191.945312 192.007812 C 190.644531 193.308594 189.3125 194.578125 187.949219 195.8125 C 186.585938 197.046875 185.195312 198.25 183.769531 199.417969 C 182.347656 200.585938 180.898438 201.714844 179.421875 202.8125 C 177.941406 203.910156 176.4375 204.96875 174.910156 205.992188 C 173.378906 207.011719 171.824219 207.996094 170.246094 208.941406 C 168.667969 209.890625 167.066406 210.796875 165.445312 211.664062 C 163.820312 212.53125 162.179688 213.359375 160.515625 214.144531 C 158.851562 214.929688 157.167969 215.675781 155.46875 216.382812 C 153.769531 217.085938 152.050781 217.746094 150.320312 218.367188 C 148.585938 218.988281 146.839844 219.5625 145.078125 220.097656 C 143.320312 220.632812 141.546875 221.125 139.761719 221.570312 C 137.976562 222.015625 136.179688 222.421875 134.375 222.78125 C 132.570312 223.136719 130.757812 223.453125 128.9375 223.722656 C 127.117188 223.992188 125.292969 224.21875 123.460938 224.398438 C 121.628906 224.578125 119.796875 224.714844 117.957031 224.804688 C 116.121094 224.894531 114.28125 224.941406 112.441406 224.941406 C 110.601562 224.941406 108.761719 224.894531 106.921875 224.804688 C 105.085938 224.714844 103.25 224.578125 101.417969 224.398438 C 99.585938 224.21875 97.761719 223.992188 95.941406 223.722656 C 94.121094 223.453125 92.308594 223.136719 90.503906 222.78125 C 88.699219 222.421875 86.90625 222.015625 85.121094 221.570312 C 83.335938 221.125 81.5625 220.632812 79.800781 220.097656 C 78.039062 219.5625 76.292969 218.988281 74.558594 218.367188 C 72.828125 217.746094 71.109375 217.085938 69.410156 216.382812 C 67.710938 215.675781 66.027344 214.929688 64.367188 214.144531 C 62.703125 213.359375 61.058594 212.53125 59.4375 211.664062 C 57.8125 210.796875 56.210938 209.890625 54.632812 208.941406 C 53.054688 207.996094 51.5 207.011719 49.972656 205.992188 C 48.441406 204.96875 46.9375 203.910156 45.460938 202.8125 C 43.980469 201.714844 42.53125 200.585938 41.109375 199.417969 C 39.6875 198.25 38.292969 197.046875 36.929688 195.8125 C 35.566406 194.578125 34.234375 193.308594 32.933594 192.007812 C 31.632812 190.707031 30.363281 189.375 29.128906 188.011719 C 27.890625 186.648438 26.691406 185.253906 25.523438 183.832031 C 24.355469 182.410156 23.222656 180.957031 22.128906 179.480469 C 21.03125 178.003906 19.972656 176.5 18.949219 174.96875 C 17.925781 173.4375 16.941406 171.882812 15.996094 170.304688 C 15.050781 168.726562 14.144531 167.125 13.277344 165.503906 C 12.410156 163.882812 11.582031 162.238281 10.796875 160.574219 C 10.007812 158.910156 9.261719 157.230469 8.558594 155.527344 C 7.855469 153.828125 7.191406 152.113281 6.574219 150.378906 C 5.953125 148.648438 5.375 146.902344 4.839844 145.140625 C 4.308594 143.378906 3.816406 141.605469 3.371094 139.820312 C 2.921875 138.035156 2.519531 136.242188 2.160156 134.4375 C 1.800781 132.632812 1.488281 130.820312 1.21875 129 C 0.945312 127.179688 0.722656 125.351562 0.542969 123.519531 C 0.359375 121.691406 0.226562 119.855469 0.136719 118.015625 C 0.046875 116.179688 0 114.339844 0 112.5 C 0 110.660156 0.046875 108.820312 0.136719 106.984375 C 0.226562 105.144531 0.359375 103.308594 0.542969 101.480469 C 0.722656 99.648438 0.945312 97.820312 1.21875 96 C 1.488281 94.179688 1.800781 92.367188 2.160156 90.5625 C 2.519531 88.757812 2.921875 86.964844 3.371094 85.179688 C 3.816406 83.394531 4.308594 81.621094 4.839844 79.859375 C 5.375 78.097656 5.953125 76.351562 6.574219 74.621094 C 7.191406 72.886719 7.855469 71.171875 8.558594 69.472656 C 9.261719 67.769531 10.007812 66.089844 10.796875 64.425781 C 11.582031 62.761719 12.410156 61.117188 13.277344 59.496094 C 14.144531 57.875 15.050781 56.273438 15.996094 54.695312 C 16.941406 53.117188 17.925781 51.5625 18.949219 50.03125 C 19.972656 48.5 21.03125 46.996094 22.128906 45.519531 C 23.222656 44.042969 24.355469 42.589844 25.523438 41.167969 C 26.691406 39.746094 27.890625 38.351562 29.128906 36.988281 C 30.363281 35.625 31.632812 34.292969 32.933594 32.992188 C 34.234375 31.691406 35.566406 30.421875 36.929688 29.1875 C 38.292969 27.953125 39.6875 26.75 41.109375 25.582031 C 42.53125 24.414062 43.980469 23.285156 45.460938 22.1875 C 46.9375 21.089844 48.441406 20.03125 49.972656 19.007812 C 51.5 17.988281 53.054688 17.003906 54.632812 16.058594 C 56.210938 15.109375 57.8125 14.203125 59.4375 13.335938 C 61.058594 12.46875 62.703125 11.640625 64.367188 10.855469 C 66.027344 10.070312 67.710938 9.324219 69.410156 8.617188 C 71.109375 7.914062 72.828125 7.253906 74.558594 6.632812 C 76.292969 6.011719 78.039062 5.4375 79.800781 4.902344 C 81.5625 4.367188 83.335938 3.875 85.121094 3.429688 C 86.90625 2.984375 88.699219 2.578125 90.503906 2.21875 C 92.308594 1.863281 94.121094 1.546875 95.941406 1.277344 C 97.761719 1.007812 99.585938 0.78125 101.417969 0.601562 C 103.25 0.421875 105.085938 0.285156 106.921875 0.195312 C 108.761719 0.105469 110.601562 0.0585938 112.441406 0.0585938 C 114.28125 0.0585938 116.121094 0.105469 117.957031 0.195312 C 119.796875 0.285156 121.628906 0.421875 123.460938 0.601562 C 125.292969 0.78125 127.117188 1.007812 128.9375 1.277344 C 130.757812 1.546875 132.570312 1.863281 134.375 2.21875 C 136.179688 2.578125 137.976562 2.984375 139.761719 3.429688 C 141.546875 3.875 143.320312 4.367188 145.078125 4.902344 C 146.839844 5.4375 148.585938 6.011719 150.320312 6.632812 C 152.050781 7.253906 153.769531 7.914062 155.46875 8.617188 C 157.167969 9.324219 158.851562 10.070312 160.515625 10.855469 C 162.179688 11.640625 163.820312 12.46875 165.445312 13.335938 C 167.066406 14.203125 168.667969 15.109375 170.246094 16.058594 C 171.824219 17.003906 173.378906 17.988281 174.910156 19.007812 C 176.4375 20.03125 177.941406 21.089844 179.421875 22.1875 C 180.898438 23.285156 182.347656 24.414062 183.769531 25.582031 C 185.195312 26.75 186.585938 27.953125 187.949219 29.1875 C 189.3125 30.421875 190.644531 31.691406 191.945312 32.992188 C 193.25 34.292969 194.515625 35.625 195.753906 36.988281 C 196.988281 38.351562 198.191406 39.746094 199.355469 41.167969 C 200.523438 42.589844 201.65625 44.042969 202.753906 45.519531 C 203.847656 46.996094 204.90625 48.5 205.929688 50.03125 C 206.953125 51.5625 207.9375 53.117188 208.882812 54.695312 C 209.828125 56.273438 210.734375 57.875 211.601562 59.496094 C 212.46875 61.117188 213.296875 62.761719 214.085938 64.425781 C 214.871094 66.089844 215.617188 67.769531 216.320312 69.472656 C 217.023438 71.171875 217.6875 72.886719 218.308594 74.621094 C 218.925781 76.351562 219.503906 78.097656 220.039062 79.859375 C 220.574219 81.621094 221.0625 83.394531 221.511719 85.179688 C 221.957031 86.964844 222.359375 88.757812 222.71875 90.5625 C 223.078125 92.367188 223.394531 94.179688 223.664062 96 C 223.933594 97.820312 224.15625 99.648438 224.339844 101.480469 C 224.519531 103.308594 224.652344 105.144531 224.746094 106.984375 C 224.835938 108.820312 224.878906 110.660156 224.878906 112.5 Z M 224.878906 112.5 "/>
</g>
<path style=" stroke:none;fill-rule:nonzero;fill:rgb(99.609375%,99.609375%,99.609375%);fill-opacity:1;" d="M 202.390625 112.5 C 202.390625 113.972656 202.355469 115.445312 202.285156 116.914062 C 202.210938 118.382812 202.101562 119.851562 201.957031 121.316406 C 201.816406 122.78125 201.632812 124.242188 201.417969 125.699219 C 201.203125 127.15625 200.949219 128.605469 200.664062 130.046875 C 200.375 131.492188 200.054688 132.929688 199.695312 134.355469 C 199.339844 135.785156 198.945312 137.203125 198.519531 138.613281 C 198.089844 140.019531 197.628906 141.417969 197.132812 142.804688 C 196.636719 144.191406 196.109375 145.5625 195.542969 146.921875 C 194.980469 148.285156 194.386719 149.628906 193.753906 150.960938 C 193.125 152.289062 192.464844 153.605469 191.769531 154.902344 C 191.078125 156.203125 190.351562 157.480469 189.59375 158.746094 C 188.835938 160.007812 188.050781 161.25 187.230469 162.476562 C 186.414062 163.699219 185.566406 164.902344 184.691406 166.085938 C 183.8125 167.265625 182.90625 168.425781 181.972656 169.566406 C 181.039062 170.703125 180.078125 171.816406 179.089844 172.90625 C 178.101562 174 177.085938 175.066406 176.046875 176.105469 C 175.003906 177.148438 173.9375 178.160156 172.847656 179.148438 C 171.757812 180.136719 170.644531 181.101562 169.503906 182.035156 C 168.367188 182.96875 167.207031 183.875 166.023438 184.75 C 164.84375 185.628906 163.636719 186.472656 162.414062 187.292969 C 161.191406 188.109375 159.945312 188.898438 158.683594 189.65625 C 157.421875 190.410156 156.140625 191.136719 154.84375 191.832031 C 153.542969 192.523438 152.230469 193.1875 150.898438 193.816406 C 149.570312 194.445312 148.222656 195.042969 146.863281 195.605469 C 145.503906 196.167969 144.128906 196.699219 142.742188 197.195312 C 141.359375 197.691406 139.960938 198.152344 138.550781 198.578125 C 137.144531 199.007812 135.722656 199.398438 134.296875 199.757812 C 132.867188 200.113281 131.433594 200.4375 129.988281 200.722656 C 128.542969 201.011719 127.09375 201.261719 125.640625 201.476562 C 124.183594 201.695312 122.722656 201.875 121.257812 202.019531 C 119.792969 202.164062 118.324219 202.269531 116.855469 202.34375 C 115.382812 202.414062 113.914062 202.453125 112.441406 202.453125 C 110.96875 202.453125 109.496094 202.414062 108.027344 202.34375 C 106.554688 202.269531 105.089844 202.164062 103.625 202.019531 C 102.15625 201.875 100.699219 201.695312 99.242188 201.476562 C 97.785156 201.261719 96.335938 201.011719 94.890625 200.722656 C 93.449219 200.4375 92.011719 200.113281 90.582031 199.757812 C 89.15625 199.398438 87.738281 199.007812 86.328125 198.578125 C 84.917969 198.152344 83.523438 197.691406 82.136719 197.195312 C 80.75 196.699219 79.375 196.167969 78.015625 195.605469 C 76.65625 195.042969 75.3125 194.445312 73.980469 193.816406 C 72.648438 193.1875 71.335938 192.523438 70.035156 191.832031 C 68.738281 191.136719 67.457031 190.410156 66.195312 189.65625 C 64.933594 188.898438 63.6875 188.109375 62.464844 187.292969 C 61.242188 186.472656 60.039062 185.628906 58.855469 184.75 C 57.671875 183.875 56.511719 182.96875 55.375 182.035156 C 54.238281 181.101562 53.121094 180.136719 52.03125 179.148438 C 50.941406 178.160156 49.875 177.148438 48.835938 176.105469 C 47.792969 175.066406 46.777344 174 45.789062 172.90625 C 44.800781 171.816406 43.839844 170.703125 42.90625 169.566406 C 41.972656 168.425781 41.066406 167.265625 40.191406 166.085938 C 39.3125 164.902344 38.464844 163.699219 37.648438 162.476562 C 36.828125 161.25 36.042969 160.007812 35.285156 158.746094 C 34.527344 157.480469 33.804688 156.203125 33.109375 154.902344 C 32.414062 153.605469 31.753906 152.289062 31.125 150.960938 C 30.496094 149.628906 29.898438 148.285156 29.335938 146.921875 C 28.773438 145.5625 28.242188 144.191406 27.746094 142.804688 C 27.25 141.417969 26.789062 140.019531 26.359375 138.613281 C 25.933594 137.203125 25.542969 135.785156 25.183594 134.355469 C 24.824219 132.929688 24.503906 131.492188 24.214844 130.046875 C 23.929688 128.605469 23.675781 127.15625 23.460938 125.699219 C 23.246094 124.242188 23.066406 122.78125 22.921875 121.316406 C 22.777344 119.851562 22.667969 118.382812 22.597656 116.914062 C 22.523438 115.445312 22.488281 113.972656 22.488281 112.5 C 22.488281 111.027344 22.523438 109.554688 22.597656 108.085938 C 22.667969 106.617188 22.777344 105.148438 22.921875 103.683594 C 23.066406 102.21875 23.246094 100.757812 23.460938 99.300781 C 23.675781 97.84375 23.929688 96.394531 24.214844 94.953125 C 24.503906 93.507812 24.824219 92.070312 25.183594 90.644531 C 25.542969 89.214844 25.933594 87.796875 26.359375 86.386719 C 26.789062 84.980469 27.25 83.582031 27.746094 82.195312 C 28.242188 80.808594 28.773438 79.4375 29.335938 78.078125 C 29.898438 76.714844 30.496094 75.371094 31.125 74.039062 C 31.753906 72.710938 32.414062 71.394531 33.109375 70.097656 C 33.804688 68.796875 34.527344 67.519531 35.285156 66.253906 C 36.042969 64.992188 36.828125 63.75 37.648438 62.523438 C 38.464844 61.300781 39.3125 60.097656 40.191406 58.914062 C 41.066406 57.734375 41.972656 56.574219 42.90625 55.433594 C 43.839844 54.296875 44.800781 53.183594 45.789062 52.09375 C 46.777344 51 47.792969 49.933594 48.835938 48.894531 C 49.875 47.851562 50.941406 46.839844 52.03125 45.851562 C 53.121094 44.863281 54.238281 43.898438 55.375 42.964844 C 56.511719 42.03125 57.671875 41.125 58.855469 40.25 C 60.039062 39.371094 61.242188 38.527344 62.464844 37.707031 C 63.6875 36.890625 64.933594 36.101562 66.195312 35.34375 C 67.457031 34.589844 68.738281 33.863281 70.035156 33.167969 C 71.335938 32.476562 72.648438 31.8125 73.980469 31.183594 C 75.3125 30.554688 76.65625 29.957031 78.015625 29.394531 C 79.375 28.832031 80.75 28.300781 82.136719 27.804688 C 83.523438 27.308594 84.917969 26.847656 86.328125 26.421875 C 87.738281 25.992188 89.15625 25.601562 90.582031 25.242188 C 92.011719 24.886719 93.449219 24.5625 94.890625 24.277344 C 96.335938 23.988281 97.785156 23.738281 99.242188 23.523438 C 100.699219 23.304688 102.15625 23.125 103.625 22.980469 C 105.089844 22.835938 106.554688 22.730469 108.027344 22.65625 C 109.496094 22.585938 110.96875 22.546875 112.441406 22.546875 C 113.914062 22.546875 115.382812 22.585938 116.855469 22.65625 C 118.324219 22.730469 119.792969 22.835938 121.257812 22.980469 C 122.722656 23.125 124.183594 23.304688 125.636719 23.523438 C 127.09375 23.738281 128.542969 23.988281 129.988281 24.277344 C 131.433594 24.5625 132.867188 24.886719 134.296875 25.242188 C 135.722656 25.601562 137.144531 25.992188 138.550781 26.421875 C 139.960938 26.847656 141.359375 27.308594 142.742188 27.804688 C 144.128906 28.300781 145.503906 28.832031 146.863281 29.394531 C 148.222656 29.957031 149.570312 30.554688 150.898438 31.183594 C 152.230469 31.8125 153.542969 32.476562 154.84375 33.167969 C 156.140625 33.863281 157.421875 34.589844 158.683594 35.34375 C 159.945312 36.101562 161.191406 36.890625 162.414062 37.707031 C 163.636719 38.527344 164.84375 39.371094 166.023438 40.25 C 167.207031 41.125 168.367188 42.03125 169.503906 42.964844 C 170.644531 43.898438 171.757812 44.863281 172.847656 45.851562 C 173.9375 46.839844 175.003906 47.851562 176.046875 48.894531 C 177.085938 49.933594 178.101562 51 179.089844 52.09375 C 180.078125 53.183594 181.039062 54.296875 181.972656 55.433594 C 182.90625 56.574219 183.8125 57.734375 184.691406 58.914062 C 185.566406 60.097656 186.414062 61.300781 187.230469 62.523438 C 188.050781 63.75 188.835938 64.992188 189.59375 66.253906 C 190.351562 67.519531 191.078125 68.796875 191.769531 70.097656 C 192.464844 71.394531 193.125 72.710938 193.753906 74.039062 C 194.386719 75.371094 194.980469 76.714844 195.542969 78.078125 C 196.109375 79.4375 196.636719 80.808594 197.132812 82.195312 C 197.628906 83.582031 198.089844 84.980469 198.519531 86.386719 C 198.945312 87.796875 199.339844 89.214844 199.695312 90.644531 C 200.054688 92.070312 200.375 93.507812 200.664062 94.953125 C 200.949219 96.394531 201.203125 97.84375 201.417969 99.300781 C 201.632812 100.757812 201.816406 102.21875 201.957031 103.683594 C 202.101562 105.148438 202.210938 106.617188 202.285156 108.085938 C 202.355469 109.554688 202.390625 111.027344 202.390625 112.5 Z M 202.390625 112.5 "/>
<path style=" stroke:none;fill-rule:nonzero;fill:rgb(93.328857%,73.728943%,35.289001%);fill-opacity:1;" d="M 59.96875 119.996094 L 74.960938 119.996094 L 74.960938 142.484375 L 59.96875 142.484375 Z M 59.96875 119.996094 "/>
<path style=" stroke:none;fill-rule:nonzero;fill:rgb(97.24884%,81.17981%,41.569519%);fill-opacity:1;" d="M 59.96875 119.996094 L 67.464844 119.996094 L 67.464844 142.484375 L 59.96875 142.484375 Z M 59.96875 119.996094 "/>
<path style=" stroke:none;fill-rule:nonzero;fill:rgb(79.219055%,31.369019%,34.118652%);fill-opacity:1;" d="M 89.953125 105.003906 L 104.945312 105.003906 L 104.945312 142.484375 L 89.953125 142.484375 Z M 89.953125 105.003906 "/>
<path style=" stroke:none;fill-rule:nonzero;fill:rgb(86.268616%,37.649536%,40.779114%);fill-opacity:1;" d="M 89.953125 105.003906 L 97.449219 105.003906 L 97.449219 142.484375 L 89.953125 142.484375 Z M 89.953125 105.003906 "/>
<path style=" stroke:none;fill-rule:nonzero;fill:rgb(50.19989%,43.919373%,80.389404%);fill-opacity:1;" d="M 119.9375 90.011719 L 134.929688 90.011719 L 134.929688 142.484375 L 119.9375 142.484375 Z M 119.9375 90.011719 "/>
<path style=" stroke:none;fill-rule:nonzero;fill:rgb(65.489197%,58.428955%,90.19928%);fill-opacity:1;" d="M 119.9375 90.011719 L 127.433594 90.011719 L 127.433594 142.484375 L 119.9375 142.484375 Z M 119.9375 90.011719 "/>
<path style=" stroke:none;fill-rule:nonzero;fill:rgb(34.118652%,53.729248%,83.918762%);fill-opacity:1;" d="M 149.921875 82.515625 L 164.910156 82.515625 L 164.910156 142.484375 L 149.921875 142.484375 Z M 149.921875 82.515625 "/>
<path style=" stroke:none;fill-rule:nonzero;fill:rgb(41.178894%,61.178589%,90.19928%);fill-opacity:1;" d="M 149.921875 82.515625 L 157.414062 82.515625 L 157.414062 142.484375 L 149.921875 142.484375 Z M 149.921875 82.515625 "/>
<path style=" stroke:none;fill-rule:nonzero;fill:rgb(36.859131%,39.608765%,43.139648%);fill-opacity:1;" d="M 52.472656 142.484375 L 172.40625 142.484375 L 172.40625 157.476562 L 52.472656 157.476562 Z M 52.472656 142.484375 "/>
<path style=" stroke:none;fill-rule:nonzero;fill:rgb(67.059326%,69.799805%,73.728943%);fill-opacity:1;" d="M 52.472656 149.980469 L 172.40625 149.980469 L 172.40625 157.476562 L 52.472656 157.476562 Z M 52.472656 149.980469 "/>
<g clip-path="url(#clip2)" clip-rule="nonzero">
<path style=" stroke:none;fill-rule:nonzero;fill:rgb(79.219055%,31.369019%,34.118652%);fill-opacity:1;" d="M 112.574219 22.546875 C 137.414062 22.546875 159.902344 32.613281 176.183594 48.894531 L 192.085938 32.988281 C 171.734375 12.644531 143.625 0.0585938 112.574219 0.0585938 Z M 112.574219 22.546875 "/>
</g>
<g clip-path="url(#clip3)" clip-rule="nonzero">
<path style=" stroke:none;fill-rule:nonzero;fill:rgb(93.328857%,73.728943%,35.289001%);fill-opacity:1;" d="M 48.832031 48.894531 C 65.113281 32.613281 87.601562 22.546875 112.441406 22.546875 L 112.441406 0.0585938 C 81.390625 0.0585938 53.28125 12.644531 32.933594 32.992188 Z M 48.832031 48.894531 "/>
</g>
<path style=" stroke:none;fill-rule:nonzero;fill:rgb(50.19989%,43.919373%,80.389404%);fill-opacity:1;" d="M 48.832031 48.894531 C 32.554688 65.175781 22.488281 87.660156 22.488281 112.5 C 22.488281 137.339844 32.554688 159.824219 48.832031 176.105469 L 32.929688 192.011719 C 12.585938 171.660156 0 143.546875 0 112.5 C 0 81.453125 12.585938 53.339844 32.933594 32.992188 Z M 48.832031 48.894531 "/>
<g clip-path="url(#clip4)" clip-rule="nonzero">
<path style=" stroke:none;fill-rule:nonzero;fill:rgb(34.118652%,53.729248%,83.918762%);fill-opacity:1;" d="M 176.15625 48.894531 C 192.433594 65.171875 202.5 87.660156 202.5 112.5 C 202.5 137.339844 192.433594 159.824219 176.15625 176.105469 L 192.058594 192.011719 C 212.40625 171.664062 224.992188 143.550781 224.992188 112.503906 C 224.992188 81.457031 212.40625 53.34375 192.058594 32.996094 Z M 176.15625 48.894531 "/>
</g>
<path style=" stroke:none;fill-rule:nonzero;fill:rgb(67.059326%,81.959534%,46.269226%);fill-opacity:1;" d="M 67.464844 108.753906 L 56.21875 108.753906 L 56.21875 101.257812 L 65.914062 101.257812 L 87.300781 79.867188 C 87.78125 79.386719 88.386719 79.046875 89.042969 78.878906 L 118.015625 71.632812 L 136.023438 53.625 C 136.726562 52.925781 137.683594 52.53125 138.675781 52.53125 L 161.164062 52.53125 L 161.164062 60.027344 L 140.226562 60.027344 L 122.585938 77.667969 C 122.105469 78.148438 121.503906 78.492188 120.847656 78.65625 L 91.871094 85.902344 L 70.117188 107.65625 C 69.414062 108.359375 68.457031 108.753906 67.464844 108.753906 Z M 67.464844 108.753906 "/>
<path style=" stroke:none;fill-rule:nonzero;fill:rgb(59.609985%,74.508667%,38.038635%);fill-opacity:1;" d="M 152.570312 70.175781 L 147.269531 64.875 L 155.863281 56.28125 L 147.269531 47.6875 L 152.570312 42.386719 L 163.8125 53.628906 C 165.277344 55.09375 165.277344 57.464844 163.8125 58.929688 Z M 152.570312 70.175781 "/>
</g>
</svg>
