<?xml version="1.0" encoding="UTF-8"?>
<svg xmlns="http://www.w3.org/2000/svg" xmlns:xlink="http://www.w3.org/1999/xlink" width="75pt" height="37.5pt" viewBox="0 0 75 37.5" version="1.2">
<defs>
<clipPath id="clip1">
  <path d="M 13.042969 0.742188 L 61.832031 0.742188 L 61.832031 36.265625 L 13.042969 36.265625 Z M 13.042969 0.742188 "/>
</clipPath>
</defs>
<g id="surface1">
<path style=" stroke:none;fill-rule:nonzero;fill:rgb(0%,0%,0%);fill-opacity:1;" d="M 38.617188 18.699219 C 39.875 18.699219 40.902344 17.667969 40.902344 16.40625 C 40.902344 15.144531 39.875 14.113281 38.617188 14.113281 C 37.359375 14.113281 36.332031 15.144531 36.332031 16.40625 C 36.292969 17.667969 37.324219 18.699219 38.617188 18.699219 Z M 38.617188 18.699219 "/>
<g clip-path="url(#clip1)" clip-rule="nonzero">
<path style=" stroke:none;fill-rule:nonzero;fill:rgb(0%,0%,0%);fill-opacity:1;" d="M 60.144531 0.742188 L 21.96875 0.742188 C 21.054688 0.742188 20.292969 1.503906 20.292969 2.421875 L 20.292969 8 L 14.730469 8 C 13.816406 8 13.054688 8.765625 13.054688 9.683594 L 13.054688 34.597656 C 13.054688 35.515625 13.816406 36.277344 14.730469 36.277344 L 52.90625 36.277344 C 53.820312 36.277344 54.582031 35.515625 54.582031 34.597656 L 54.582031 29.019531 L 60.144531 29.019531 C 61.058594 29.019531 61.820312 28.253906 61.820312 27.335938 L 61.820312 2.421875 C 61.820312 1.503906 61.058594 0.742188 60.144531 0.742188 Z M 51.53125 25.464844 L 45.324219 19.082031 L 45.207031 19.082031 C 45.132812 19.042969 45.019531 19.082031 44.902344 19.121094 C 44.867188 19.121094 44.828125 19.195312 44.789062 19.234375 L 38.960938 25.082031 L 30.085938 16.179688 C 29.933594 16.023438 29.703125 16.023438 29.550781 16.179688 L 23.722656 22.023438 L 20.941406 19.234375 C 20.789062 19.082031 20.558594 19.082031 20.40625 19.234375 L 16.101562 23.515625 L 16.101562 11.058594 L 51.53125 11.058594 Z M 58.773438 25.960938 L 54.582031 25.960938 L 54.582031 9.683594 C 54.582031 8.765625 53.820312 8 52.90625 8 L 23.339844 8 L 23.339844 3.796875 L 58.773438 3.796875 Z M 58.773438 25.960938 "/>
</g>
</g>
</svg>
