<?xml version="1.0" encoding="UTF-8"?>
<svg xmlns="http://www.w3.org/2000/svg" xmlns:xlink="http://www.w3.org/1999/xlink" width="438pt" height="503.249994pt" viewBox="0 0 438 503.249994" version="1.2">
<g id="surface1">
<path style=" stroke:none;fill-rule:nonzero;fill:rgb(94.898987%,94.898987%,94.898987%);fill-opacity:1;" d="M 273.753906 409.226562 L 164.1875 409.226562 L 178.09375 341.480469 L 259.832031 341.480469 Z M 273.753906 409.226562 "/>
<path style=" stroke:none;fill-rule:nonzero;fill:rgb(85.099792%,84.709167%,84.309387%);fill-opacity:1;" d="M 273.753906 409.226562 L 259.832031 341.480469 L 178.09375 341.480469 L 245.828125 409.226562 Z M 273.753906 409.226562 "/>
<path style=" stroke:none;fill-rule:nonzero;fill:rgb(94.898987%,94.898987%,94.898987%);fill-opacity:1;" d="M 134.851562 409.226562 L 303.101562 409.226562 L 303.101562 417.425781 L 134.851562 417.425781 Z M 134.851562 409.226562 "/>
<path style=" stroke:none;fill-rule:nonzero;fill:rgb(14.118958%,17.649841%,23.529053%);fill-opacity:1;" d="M 18.941406 62.757812 C 13.332031 62.757812 8.738281 67.378906 8.738281 72.992188 L 8.738281 331.257812 C 8.738281 336.886719 13.335938 341.484375 18.941406 341.484375 L 419.011719 341.484375 C 424.636719 341.484375 429.257812 336.886719 429.257812 331.257812 L 429.257812 72.992188 C 429.257812 67.378906 424.636719 62.753906 419.011719 62.753906 L 18.941406 62.75 L 18.949219 62.75 Z M 18.941406 62.757812 "/>
<path style=" stroke:none;fill-rule:nonzero;fill:rgb(100%,100%,100%);fill-opacity:1;" d="M 29.976562 84.003906 L 407.988281 84.003906 L 407.988281 320.257812 L 29.976562 320.257812 Z M 29.976562 84.003906 "/>
<path style=" stroke:none;fill-rule:nonzero;fill:rgb(85.099792%,84.709167%,84.309387%);fill-opacity:1;" d="M 150.039062 269.71875 L 386.183594 269.71875 L 386.183594 274.414062 L 150.039062 274.414062 Z M 150.039062 269.71875 "/>
<path style=" stroke:none;fill-rule:nonzero;fill:rgb(85.099792%,84.709167%,84.309387%);fill-opacity:1;" d="M 51.761719 269.71875 L 131.609375 269.71875 L 131.609375 274.414062 L 51.761719 274.414062 Z M 51.761719 269.71875 "/>
<path style=" stroke:none;fill-rule:nonzero;fill:rgb(85.099792%,84.709167%,84.309387%);fill-opacity:1;" d="M 51.761719 284.269531 L 386.1875 284.269531 L 386.1875 288.964844 L 51.761719 288.964844 Z M 51.761719 284.269531 "/>
<path style=" stroke:none;fill-rule:nonzero;fill:rgb(85.099792%,84.709167%,84.309387%);fill-opacity:1;" d="M 51.761719 298.796875 L 218.980469 298.796875 L 218.980469 303.496094 L 51.761719 303.496094 Z M 51.761719 298.796875 "/>
<path style=" stroke:none;fill-rule:nonzero;fill:rgb(100%,42.749023%,23.139954%);fill-opacity:1;" d="M 58.46875 100.753906 L 107.363281 100.753906 L 107.363281 251.574219 L 58.46875 251.574219 Z M 58.46875 100.753906 "/>
<path style=" stroke:none;fill-rule:nonzero;fill:rgb(85.099792%,84.709167%,84.309387%);fill-opacity:1;" d="M 124.851562 181.472656 L 173.742188 181.472656 L 173.742188 251.574219 L 124.851562 251.574219 Z M 124.851562 181.472656 "/>
<path style=" stroke:none;fill-rule:nonzero;fill:rgb(24.308777%,28.62854%,34.899902%);fill-opacity:1;" d="M 191.230469 125.097656 L 240.125 125.097656 L 240.125 251.574219 L 191.230469 251.574219 Z M 191.230469 125.097656 "/>
<path style=" stroke:none;fill-rule:nonzero;fill:rgb(12.939453%,84.709167%,87.059021%);fill-opacity:1;" d="M 257.605469 223.757812 L 306.5 223.757812 L 306.5 251.574219 L 257.605469 251.574219 Z M 257.605469 223.757812 "/>
<path style=" stroke:none;fill-rule:nonzero;fill:rgb(85.099792%,84.709167%,84.309387%);fill-opacity:1;" d="M 341.101562 104.679688 L 365.414062 104.679688 L 365.414062 109.851562 L 341.101562 109.851562 Z M 341.101562 104.679688 "/>
<path style=" stroke:none;fill-rule:nonzero;fill:rgb(85.099792%,84.709167%,84.309387%);fill-opacity:1;" d="M 369.273438 104.679688 L 379.480469 104.679688 L 379.480469 109.851562 L 369.273438 109.851562 Z M 369.273438 104.679688 "/>
<path style=" stroke:none;fill-rule:nonzero;fill:rgb(85.099792%,84.709167%,84.309387%);fill-opacity:1;" d="M 341.101562 146.171875 L 379.476562 146.171875 L 379.476562 151.34375 L 341.101562 151.34375 Z M 341.101562 146.171875 "/>
<path style=" stroke:none;fill-rule:nonzero;fill:rgb(85.099792%,84.709167%,84.309387%);fill-opacity:1;" d="M 373.417969 166.921875 L 379.480469 166.921875 L 379.480469 172.097656 L 373.417969 172.097656 Z M 373.417969 166.921875 "/>
<path style=" stroke:none;fill-rule:nonzero;fill:rgb(85.099792%,84.709167%,84.309387%);fill-opacity:1;" d="M 341.101562 166.921875 L 370.171875 166.921875 L 370.171875 172.097656 L 341.101562 172.097656 Z M 341.101562 166.921875 "/>
<path style=" stroke:none;fill-rule:nonzero;fill:rgb(85.099792%,84.709167%,84.309387%);fill-opacity:1;" d="M 341.101562 125.425781 L 348.199219 125.425781 L 348.199219 130.597656 L 341.101562 130.597656 Z M 341.101562 125.425781 "/>
<path style=" stroke:none;fill-rule:nonzero;fill:rgb(85.099792%,84.709167%,84.309387%);fill-opacity:1;" d="M 353.148438 125.425781 L 363.957031 125.425781 L 363.957031 130.597656 L 353.148438 130.597656 Z M 353.148438 125.425781 "/>
<path style=" stroke:none;fill-rule:nonzero;fill:rgb(85.099792%,84.709167%,84.309387%);fill-opacity:1;" d="M 368.664062 125.425781 L 379.476562 125.425781 L 379.476562 130.597656 L 368.664062 130.597656 Z M 368.664062 125.425781 "/>
<path style=" stroke:none;fill-rule:nonzero;fill:rgb(24.308777%,28.62854%,34.899902%);fill-opacity:1;" d="M 333.945312 107.265625 C 333.945312 107.695312 333.90625 108.117188 333.820312 108.539062 C 333.738281 108.957031 333.613281 109.363281 333.449219 109.757812 C 333.289062 110.15625 333.085938 110.53125 332.847656 110.886719 C 332.613281 111.242188 332.339844 111.570312 332.039062 111.871094 C 331.738281 112.175781 331.40625 112.445312 331.050781 112.683594 C 330.695312 112.921875 330.320312 113.121094 329.925781 113.285156 C 329.53125 113.449219 329.125 113.570312 328.703125 113.65625 C 328.285156 113.738281 327.859375 113.78125 327.433594 113.78125 C 327.003906 113.78125 326.582031 113.738281 326.160156 113.65625 C 325.742188 113.570312 325.335938 113.449219 324.941406 113.285156 C 324.542969 113.121094 324.167969 112.921875 323.8125 112.683594 C 323.457031 112.445312 323.128906 112.175781 322.828125 111.871094 C 322.523438 111.570312 322.253906 111.242188 322.015625 110.886719 C 321.777344 110.53125 321.578125 110.15625 321.414062 109.757812 C 321.25 109.363281 321.128906 108.957031 321.042969 108.539062 C 320.960938 108.117188 320.917969 107.695312 320.917969 107.265625 C 320.917969 106.839844 320.960938 106.414062 321.042969 105.996094 C 321.128906 105.578125 321.25 105.167969 321.414062 104.773438 C 321.578125 104.378906 321.777344 104.003906 322.015625 103.648438 C 322.253906 103.292969 322.523438 102.964844 322.828125 102.660156 C 323.128906 102.359375 323.457031 102.089844 323.8125 101.851562 C 324.167969 101.613281 324.542969 101.414062 324.941406 101.25 C 325.335938 101.085938 325.742188 100.960938 326.160156 100.878906 C 326.582031 100.792969 327.003906 100.753906 327.433594 100.753906 C 327.859375 100.753906 328.285156 100.792969 328.703125 100.878906 C 329.125 100.960938 329.53125 101.085938 329.925781 101.25 C 330.320312 101.414062 330.695312 101.613281 331.050781 101.851562 C 331.40625 102.089844 331.738281 102.359375 332.039062 102.660156 C 332.339844 102.964844 332.613281 103.292969 332.847656 103.648438 C 333.085938 104.003906 333.289062 104.378906 333.449219 104.773438 C 333.613281 105.167969 333.738281 105.578125 333.820312 105.996094 C 333.90625 106.414062 333.945312 106.839844 333.945312 107.265625 Z M 333.945312 107.265625 "/>
<path style=" stroke:none;fill-rule:nonzero;fill:rgb(85.099792%,84.709167%,84.309387%);fill-opacity:1;" d="M 333.945312 128.011719 C 333.945312 128.4375 333.90625 128.863281 333.820312 129.28125 C 333.738281 129.703125 333.613281 130.109375 333.449219 130.503906 C 333.289062 130.898438 333.085938 131.273438 332.847656 131.628906 C 332.613281 131.984375 332.339844 132.316406 332.039062 132.617188 C 331.738281 132.917969 331.40625 133.191406 331.050781 133.425781 C 330.695312 133.664062 330.320312 133.867188 329.925781 134.03125 C 329.53125 134.191406 329.125 134.316406 328.703125 134.398438 C 328.285156 134.484375 327.859375 134.523438 327.433594 134.523438 C 327.003906 134.523438 326.582031 134.484375 326.160156 134.398438 C 325.742188 134.316406 325.335938 134.191406 324.941406 134.03125 C 324.542969 133.867188 324.167969 133.664062 323.8125 133.425781 C 323.457031 133.191406 323.128906 132.917969 322.828125 132.617188 C 322.523438 132.316406 322.253906 131.984375 322.015625 131.628906 C 321.777344 131.273438 321.578125 130.898438 321.414062 130.503906 C 321.25 130.109375 321.128906 129.703125 321.042969 129.28125 C 320.960938 128.863281 320.917969 128.4375 320.917969 128.011719 C 320.917969 127.582031 320.960938 127.160156 321.042969 126.742188 C 321.128906 126.320312 321.25 125.914062 321.414062 125.519531 C 321.578125 125.125 321.777344 124.746094 322.015625 124.390625 C 322.253906 124.035156 322.523438 123.707031 322.828125 123.40625 C 323.128906 123.101562 323.457031 122.832031 323.8125 122.59375 C 324.167969 122.355469 324.542969 122.15625 324.941406 121.992188 C 325.335938 121.828125 325.742188 121.707031 326.160156 121.621094 C 326.582031 121.539062 327.003906 121.496094 327.433594 121.496094 C 327.859375 121.496094 328.285156 121.539062 328.703125 121.621094 C 329.125 121.707031 329.53125 121.828125 329.925781 121.992188 C 330.320312 122.15625 330.695312 122.355469 331.050781 122.59375 C 331.40625 122.832031 331.738281 123.101562 332.039062 123.40625 C 332.339844 123.707031 332.613281 124.035156 332.847656 124.390625 C 333.085938 124.746094 333.289062 125.125 333.449219 125.519531 C 333.613281 125.914062 333.738281 126.320312 333.820312 126.742188 C 333.90625 127.160156 333.945312 127.582031 333.945312 128.011719 Z M 333.945312 128.011719 "/>
<path style=" stroke:none;fill-rule:nonzero;fill:rgb(100%,42.749023%,23.139954%);fill-opacity:1;" d="M 333.945312 148.761719 C 333.945312 149.191406 333.90625 149.613281 333.820312 150.03125 C 333.738281 150.453125 333.613281 150.859375 333.449219 151.253906 C 333.289062 151.648438 333.085938 152.027344 332.847656 152.382812 C 332.613281 152.738281 332.339844 153.066406 332.039062 153.367188 C 331.738281 153.671875 331.40625 153.941406 331.050781 154.179688 C 330.695312 154.414062 330.320312 154.617188 329.925781 154.78125 C 329.53125 154.945312 329.125 155.066406 328.703125 155.152344 C 328.285156 155.234375 327.859375 155.277344 327.433594 155.277344 C 327.003906 155.277344 326.582031 155.234375 326.160156 155.152344 C 325.742188 155.066406 325.335938 154.945312 324.941406 154.78125 C 324.542969 154.617188 324.167969 154.414062 323.8125 154.179688 C 323.457031 153.941406 323.128906 153.671875 322.828125 153.367188 C 322.523438 153.066406 322.253906 152.738281 322.015625 152.382812 C 321.777344 152.027344 321.578125 151.648438 321.414062 151.253906 C 321.25 150.859375 321.128906 150.453125 321.042969 150.03125 C 320.960938 149.613281 320.917969 149.191406 320.917969 148.761719 C 320.917969 148.335938 320.960938 147.910156 321.042969 147.492188 C 321.128906 147.070312 321.25 146.664062 321.414062 146.269531 C 321.578125 145.875 321.777344 145.5 322.015625 145.144531 C 322.253906 144.789062 322.523438 144.457031 322.828125 144.15625 C 323.128906 143.855469 323.457031 143.582031 323.8125 143.347656 C 324.167969 143.109375 324.542969 142.90625 324.941406 142.742188 C 325.335938 142.582031 325.742188 142.457031 326.160156 142.375 C 326.582031 142.289062 327.003906 142.25 327.433594 142.25 C 327.859375 142.25 328.285156 142.289062 328.703125 142.375 C 329.125 142.457031 329.53125 142.582031 329.925781 142.742188 C 330.320312 142.90625 330.695312 143.109375 331.050781 143.347656 C 331.40625 143.582031 331.738281 143.855469 332.039062 144.15625 C 332.339844 144.457031 332.613281 144.789062 332.847656 145.144531 C 333.085938 145.5 333.289062 145.875 333.449219 146.269531 C 333.613281 146.664062 333.738281 147.070312 333.820312 147.492188 C 333.90625 147.910156 333.945312 148.335938 333.945312 148.761719 Z M 333.945312 148.761719 "/>
<path style=" stroke:none;fill-rule:nonzero;fill:rgb(12.939453%,84.709167%,87.059021%);fill-opacity:1;" d="M 333.945312 169.5 C 333.945312 169.929688 333.90625 170.351562 333.820312 170.769531 C 333.738281 171.191406 333.613281 171.597656 333.449219 171.992188 C 333.289062 172.386719 333.085938 172.765625 332.847656 173.121094 C 332.613281 173.476562 332.339844 173.804688 332.039062 174.105469 C 331.738281 174.410156 331.40625 174.679688 331.050781 174.917969 C 330.695312 175.152344 330.320312 175.355469 329.925781 175.519531 C 329.53125 175.683594 329.125 175.804688 328.703125 175.890625 C 328.285156 175.972656 327.859375 176.015625 327.433594 176.015625 C 327.003906 176.015625 326.582031 175.972656 326.160156 175.890625 C 325.742188 175.804688 325.335938 175.683594 324.941406 175.519531 C 324.542969 175.355469 324.167969 175.152344 323.8125 174.917969 C 323.457031 174.679688 323.128906 174.410156 322.828125 174.105469 C 322.523438 173.804688 322.253906 173.476562 322.015625 173.121094 C 321.777344 172.765625 321.578125 172.386719 321.414062 171.992188 C 321.25 171.597656 321.128906 171.191406 321.042969 170.769531 C 320.960938 170.351562 320.917969 169.929688 320.917969 169.5 C 320.917969 169.074219 320.960938 168.648438 321.042969 168.230469 C 321.128906 167.808594 321.25 167.402344 321.414062 167.007812 C 321.578125 166.613281 321.777344 166.238281 322.015625 165.882812 C 322.253906 165.527344 322.523438 165.195312 322.828125 164.894531 C 323.128906 164.59375 323.457031 164.320312 323.8125 164.085938 C 324.167969 163.847656 324.542969 163.644531 324.941406 163.480469 C 325.335938 163.320312 325.742188 163.195312 326.160156 163.113281 C 326.582031 163.027344 327.003906 162.988281 327.433594 162.988281 C 327.859375 162.988281 328.285156 163.027344 328.703125 163.113281 C 329.125 163.195312 329.53125 163.320312 329.925781 163.480469 C 330.320312 163.644531 330.695312 163.847656 331.050781 164.085938 C 331.40625 164.320312 331.738281 164.59375 332.039062 164.894531 C 332.339844 165.195312 332.613281 165.527344 332.847656 165.882812 C 333.085938 166.238281 333.289062 166.613281 333.449219 167.007812 C 333.613281 167.402344 333.738281 167.808594 333.820312 168.230469 C 333.90625 168.648438 333.945312 169.074219 333.945312 169.5 Z M 333.945312 169.5 "/>
</g>
</svg>
