<?xml version="1.0" encoding="UTF-8"?>
<svg xmlns="http://www.w3.org/2000/svg" xmlns:xlink="http://www.w3.org/1999/xlink" width="415.5pt" height="415.500001pt" viewBox="0 0 415.5 415.500001" version="1.2">
<g id="surface1">
<path style=" stroke:none;fill-rule:nonzero;fill:rgb(94.898987%,94.898987%,94.898987%);fill-opacity:1;" d="M 259.765625 355.328125 L 155.675781 355.328125 L 168.886719 290.964844 L 246.542969 290.964844 Z M 259.765625 355.328125 "/>
<path style=" stroke:none;fill-rule:nonzero;fill:rgb(85.099792%,84.709167%,84.309387%);fill-opacity:1;" d="M 259.765625 355.328125 L 246.542969 290.964844 L 168.886719 290.964844 L 233.238281 355.328125 Z M 259.765625 355.328125 "/>
<path style=" stroke:none;fill-rule:nonzero;fill:rgb(94.898987%,94.898987%,94.898987%);fill-opacity:1;" d="M 127.804688 355.328125 L 287.652344 355.328125 L 287.652344 363.117188 L 127.804688 363.117188 Z M 127.804688 355.328125 "/>
<path style=" stroke:none;fill-rule:nonzero;fill:rgb(14.118958%,17.649841%,23.529053%);fill-opacity:1;" d="M 17.683594 26.164062 C 12.355469 26.164062 7.992188 30.554688 7.992188 35.890625 L 7.992188 281.253906 C 7.992188 286.601562 12.359375 290.972656 17.6875 290.972656 L 397.769531 290.972656 C 403.113281 290.972656 407.503906 286.601562 407.503906 281.253906 L 407.503906 35.890625 C 407.503906 30.558594 403.113281 26.164062 397.769531 26.164062 L 17.6875 26.160156 L 17.691406 26.160156 Z M 17.683594 26.164062 "/>
<path style=" stroke:none;fill-rule:nonzero;fill:rgb(100%,100%,100%);fill-opacity:1;" d="M 28.167969 46.351562 L 387.296875 46.351562 L 387.296875 270.804688 L 28.167969 270.804688 Z M 28.167969 46.351562 "/>
<path style=" stroke:none;fill-rule:nonzero;fill:rgb(85.099792%,84.709167%,84.309387%);fill-opacity:1;" d="M 142.234375 222.789062 L 366.582031 222.789062 L 366.582031 227.25 L 142.234375 227.25 Z M 142.234375 222.789062 "/>
<path style=" stroke:none;fill-rule:nonzero;fill:rgb(85.099792%,84.709167%,84.309387%);fill-opacity:1;" d="M 48.867188 222.789062 L 124.722656 222.789062 L 124.722656 227.25 L 48.867188 227.25 Z M 48.867188 222.789062 "/>
<path style=" stroke:none;fill-rule:nonzero;fill:rgb(85.099792%,84.709167%,84.309387%);fill-opacity:1;" d="M 48.867188 236.613281 L 366.585938 236.613281 L 366.585938 241.074219 L 48.867188 241.074219 Z M 48.867188 236.613281 "/>
<path style=" stroke:none;fill-rule:nonzero;fill:rgb(85.099792%,84.709167%,84.309387%);fill-opacity:1;" d="M 48.867188 250.414062 L 207.730469 250.414062 L 207.730469 254.878906 L 48.867188 254.878906 Z M 48.867188 250.414062 "/>
<path style=" stroke:none;fill-rule:nonzero;fill:rgb(100%,42.749023%,23.139954%);fill-opacity:1;" d="M 55.238281 62.265625 L 101.691406 62.265625 L 101.691406 205.550781 L 55.238281 205.550781 Z M 55.238281 62.265625 "/>
<path style=" stroke:none;fill-rule:nonzero;fill:rgb(85.099792%,84.709167%,84.309387%);fill-opacity:1;" d="M 118.304688 138.953125 L 164.753906 138.953125 L 164.753906 205.550781 L 118.304688 205.550781 Z M 118.304688 138.953125 "/>
<path style=" stroke:none;fill-rule:nonzero;fill:rgb(24.308777%,28.62854%,34.899902%);fill-opacity:1;" d="M 181.367188 85.390625 L 227.816406 85.390625 L 227.816406 205.550781 L 181.367188 205.550781 Z M 181.367188 85.390625 "/>
<path style=" stroke:none;fill-rule:nonzero;fill:rgb(12.939453%,84.709167%,87.059021%);fill-opacity:1;" d="M 244.425781 179.125 L 290.878906 179.125 L 290.878906 205.550781 L 244.425781 205.550781 Z M 244.425781 179.125 "/>
<path style=" stroke:none;fill-rule:nonzero;fill:rgb(85.099792%,84.709167%,84.309387%);fill-opacity:1;" d="M 323.75 65.992188 L 346.847656 65.992188 L 346.847656 70.90625 L 323.75 70.90625 Z M 323.75 65.992188 "/>
<path style=" stroke:none;fill-rule:nonzero;fill:rgb(85.099792%,84.709167%,84.309387%);fill-opacity:1;" d="M 350.519531 65.992188 L 360.210938 65.992188 L 360.210938 70.90625 L 350.519531 70.90625 Z M 350.519531 65.992188 "/>
<path style=" stroke:none;fill-rule:nonzero;fill:rgb(85.099792%,84.709167%,84.309387%);fill-opacity:1;" d="M 323.75 105.417969 L 360.210938 105.417969 L 360.210938 110.328125 L 323.75 110.328125 Z M 323.75 105.417969 "/>
<path style=" stroke:none;fill-rule:nonzero;fill:rgb(85.099792%,84.709167%,84.309387%);fill-opacity:1;" d="M 354.453125 125.125 L 360.214844 125.125 L 360.214844 130.042969 L 354.453125 130.042969 Z M 354.453125 125.125 "/>
<path style=" stroke:none;fill-rule:nonzero;fill:rgb(85.099792%,84.709167%,84.309387%);fill-opacity:1;" d="M 323.75 125.125 L 351.371094 125.125 L 351.371094 130.042969 L 323.75 130.042969 Z M 323.75 125.125 "/>
<path style=" stroke:none;fill-rule:nonzero;fill:rgb(85.099792%,84.709167%,84.309387%);fill-opacity:1;" d="M 323.75 85.707031 L 330.496094 85.707031 L 330.496094 90.617188 L 323.75 90.617188 Z M 323.75 85.707031 "/>
<path style=" stroke:none;fill-rule:nonzero;fill:rgb(85.099792%,84.709167%,84.309387%);fill-opacity:1;" d="M 335.195312 85.707031 L 345.464844 85.707031 L 345.464844 90.617188 L 335.195312 90.617188 Z M 335.195312 85.707031 "/>
<path style=" stroke:none;fill-rule:nonzero;fill:rgb(85.099792%,84.709167%,84.309387%);fill-opacity:1;" d="M 349.9375 85.707031 L 360.210938 85.707031 L 360.210938 90.617188 L 349.9375 90.617188 Z M 349.9375 85.707031 "/>
<path style=" stroke:none;fill-rule:nonzero;fill:rgb(24.308777%,28.62854%,34.899902%);fill-opacity:1;" d="M 316.953125 68.453125 C 316.953125 68.859375 316.914062 69.261719 316.835938 69.660156 C 316.757812 70.058594 316.640625 70.445312 316.484375 70.820312 C 316.328125 71.195312 316.136719 71.554688 315.910156 71.890625 C 315.6875 72.230469 315.429688 72.542969 315.140625 72.828125 C 314.855469 73.117188 314.542969 73.371094 314.203125 73.597656 C 313.867188 73.824219 313.507812 74.015625 313.132812 74.171875 C 312.757812 74.324219 312.371094 74.441406 311.972656 74.523438 C 311.574219 74.601562 311.171875 74.640625 310.765625 74.640625 C 310.359375 74.640625 309.957031 74.601562 309.558594 74.523438 C 309.160156 74.441406 308.773438 74.324219 308.398438 74.171875 C 308.023438 74.015625 307.664062 73.824219 307.328125 73.597656 C 306.988281 73.371094 306.675781 73.117188 306.390625 72.828125 C 306.101562 72.542969 305.847656 72.230469 305.621094 71.890625 C 305.394531 71.554688 305.203125 71.195312 305.046875 70.820312 C 304.894531 70.445312 304.777344 70.058594 304.695312 69.660156 C 304.617188 69.261719 304.578125 68.859375 304.578125 68.453125 C 304.578125 68.046875 304.617188 67.644531 304.695312 67.246094 C 304.777344 66.847656 304.894531 66.460938 305.046875 66.085938 C 305.203125 65.707031 305.394531 65.351562 305.621094 65.015625 C 305.847656 64.675781 306.101562 64.363281 306.390625 64.078125 C 306.675781 63.789062 306.988281 63.53125 307.328125 63.308594 C 307.664062 63.082031 308.023438 62.890625 308.398438 62.734375 C 308.773438 62.578125 309.160156 62.460938 309.558594 62.382812 C 309.957031 62.304688 310.359375 62.265625 310.765625 62.265625 C 311.171875 62.265625 311.574219 62.304688 311.972656 62.382812 C 312.371094 62.460938 312.757812 62.578125 313.132812 62.734375 C 313.507812 62.890625 313.867188 63.082031 314.203125 63.308594 C 314.542969 63.53125 314.855469 63.789062 315.140625 64.078125 C 315.429688 64.363281 315.6875 64.675781 315.910156 65.015625 C 316.136719 65.351562 316.328125 65.707031 316.484375 66.085938 C 316.640625 66.460938 316.757812 66.847656 316.835938 67.246094 C 316.914062 67.644531 316.953125 68.046875 316.953125 68.453125 Z M 316.953125 68.453125 "/>
<path style=" stroke:none;fill-rule:nonzero;fill:rgb(85.099792%,84.709167%,84.309387%);fill-opacity:1;" d="M 316.953125 88.160156 C 316.953125 88.566406 316.914062 88.96875 316.835938 89.367188 C 316.757812 89.765625 316.640625 90.152344 316.484375 90.527344 C 316.328125 90.90625 316.136719 91.261719 315.910156 91.597656 C 315.6875 91.9375 315.429688 92.25 315.140625 92.535156 C 314.855469 92.824219 314.542969 93.082031 314.203125 93.304688 C 313.867188 93.53125 313.507812 93.722656 313.132812 93.878906 C 312.757812 94.035156 312.371094 94.152344 311.972656 94.230469 C 311.574219 94.308594 311.171875 94.347656 310.765625 94.347656 C 310.359375 94.347656 309.957031 94.308594 309.558594 94.230469 C 309.160156 94.152344 308.773438 94.035156 308.398438 93.878906 C 308.023438 93.722656 307.664062 93.53125 307.328125 93.304688 C 306.988281 93.082031 306.675781 92.824219 306.390625 92.535156 C 306.101562 92.25 305.847656 91.9375 305.621094 91.597656 C 305.394531 91.261719 305.203125 90.90625 305.046875 90.527344 C 304.894531 90.152344 304.777344 89.765625 304.695312 89.367188 C 304.617188 88.96875 304.578125 88.566406 304.578125 88.160156 C 304.578125 87.753906 304.617188 87.351562 304.695312 86.953125 C 304.777344 86.554688 304.894531 86.167969 305.046875 85.792969 C 305.203125 85.417969 305.394531 85.0625 305.621094 84.722656 C 305.847656 84.386719 306.101562 84.070312 306.390625 83.785156 C 306.675781 83.496094 306.988281 83.242188 307.328125 83.015625 C 307.664062 82.789062 308.023438 82.597656 308.398438 82.445312 C 308.773438 82.289062 309.160156 82.171875 309.558594 82.089844 C 309.957031 82.011719 310.359375 81.972656 310.765625 81.972656 C 311.171875 81.972656 311.574219 82.011719 311.972656 82.089844 C 312.371094 82.171875 312.757812 82.289062 313.132812 82.445312 C 313.507812 82.597656 313.867188 82.789062 314.203125 83.015625 C 314.542969 83.242188 314.855469 83.496094 315.140625 83.785156 C 315.429688 84.070312 315.6875 84.386719 315.910156 84.722656 C 316.136719 85.0625 316.328125 85.417969 316.484375 85.792969 C 316.640625 86.167969 316.757812 86.554688 316.835938 86.953125 C 316.914062 87.351562 316.953125 87.753906 316.953125 88.160156 Z M 316.953125 88.160156 "/>
<path style=" stroke:none;fill-rule:nonzero;fill:rgb(100%,42.749023%,23.139954%);fill-opacity:1;" d="M 316.953125 107.875 C 316.953125 108.28125 316.914062 108.683594 316.835938 109.082031 C 316.757812 109.480469 316.640625 109.867188 316.484375 110.242188 C 316.328125 110.617188 316.136719 110.976562 315.910156 111.3125 C 315.6875 111.652344 315.429688 111.964844 315.140625 112.25 C 314.855469 112.539062 314.542969 112.796875 314.203125 113.019531 C 313.867188 113.246094 313.507812 113.4375 313.132812 113.59375 C 312.757812 113.75 312.371094 113.867188 311.972656 113.945312 C 311.574219 114.023438 311.171875 114.0625 310.765625 114.0625 C 310.359375 114.0625 309.957031 114.023438 309.558594 113.945312 C 309.160156 113.867188 308.773438 113.75 308.398438 113.59375 C 308.023438 113.4375 307.664062 113.246094 307.328125 113.019531 C 306.988281 112.796875 306.675781 112.539062 306.390625 112.25 C 306.101562 111.964844 305.847656 111.652344 305.621094 111.3125 C 305.394531 110.976562 305.203125 110.617188 305.046875 110.242188 C 304.894531 109.867188 304.777344 109.480469 304.695312 109.082031 C 304.617188 108.683594 304.578125 108.28125 304.578125 107.875 C 304.578125 107.46875 304.617188 107.066406 304.695312 106.667969 C 304.777344 106.269531 304.894531 105.882812 305.046875 105.507812 C 305.203125 105.132812 305.394531 104.773438 305.621094 104.4375 C 305.847656 104.097656 306.101562 103.785156 306.390625 103.5 C 306.675781 103.210938 306.988281 102.957031 307.328125 102.730469 C 307.664062 102.503906 308.023438 102.3125 308.398438 102.15625 C 308.773438 102.003906 309.160156 101.886719 309.558594 101.804688 C 309.957031 101.726562 310.359375 101.6875 310.765625 101.6875 C 311.171875 101.6875 311.574219 101.726562 311.972656 101.804688 C 312.371094 101.886719 312.757812 102.003906 313.132812 102.15625 C 313.507812 102.3125 313.867188 102.503906 314.203125 102.730469 C 314.542969 102.957031 314.855469 103.210938 315.140625 103.5 C 315.429688 103.785156 315.6875 104.097656 315.910156 104.4375 C 316.136719 104.773438 316.328125 105.132812 316.484375 105.507812 C 316.640625 105.882812 316.757812 106.269531 316.835938 106.667969 C 316.914062 107.066406 316.953125 107.46875 316.953125 107.875 Z M 316.953125 107.875 "/>
<path style=" stroke:none;fill-rule:nonzero;fill:rgb(12.939453%,84.709167%,87.059021%);fill-opacity:1;" d="M 316.953125 127.578125 C 316.953125 127.984375 316.914062 128.386719 316.835938 128.785156 C 316.757812 129.183594 316.640625 129.570312 316.484375 129.945312 C 316.328125 130.320312 316.136719 130.675781 315.910156 131.015625 C 315.6875 131.351562 315.429688 131.667969 315.140625 131.953125 C 314.855469 132.242188 314.542969 132.496094 314.203125 132.722656 C 313.867188 132.949219 313.507812 133.140625 313.132812 133.292969 C 312.757812 133.449219 312.371094 133.566406 311.972656 133.648438 C 311.574219 133.726562 311.171875 133.765625 310.765625 133.765625 C 310.359375 133.765625 309.957031 133.726562 309.558594 133.648438 C 309.160156 133.566406 308.773438 133.449219 308.398438 133.292969 C 308.023438 133.140625 307.664062 132.949219 307.328125 132.722656 C 306.988281 132.496094 306.675781 132.242188 306.390625 131.953125 C 306.101562 131.667969 305.847656 131.351562 305.621094 131.015625 C 305.394531 130.679688 305.203125 130.320312 305.046875 129.945312 C 304.894531 129.570312 304.777344 129.183594 304.695312 128.785156 C 304.617188 128.386719 304.578125 127.984375 304.578125 127.578125 C 304.578125 127.171875 304.617188 126.769531 304.695312 126.371094 C 304.777344 125.972656 304.894531 125.585938 305.046875 125.210938 C 305.203125 124.832031 305.394531 124.476562 305.621094 124.140625 C 305.847656 123.800781 306.101562 123.488281 306.390625 123.203125 C 306.675781 122.914062 306.988281 122.65625 307.328125 122.433594 C 307.664062 122.207031 308.023438 122.015625 308.398438 121.859375 C 308.773438 121.703125 309.160156 121.585938 309.558594 121.507812 C 309.957031 121.429688 310.359375 121.390625 310.765625 121.390625 C 311.171875 121.390625 311.574219 121.429688 311.972656 121.507812 C 312.371094 121.585938 312.757812 121.703125 313.132812 121.859375 C 313.507812 122.015625 313.867188 122.207031 314.203125 122.433594 C 314.542969 122.65625 314.855469 122.914062 315.140625 123.203125 C 315.429688 123.488281 315.6875 123.800781 315.910156 124.140625 C 316.136719 124.476562 316.328125 124.832031 316.484375 125.210938 C 316.640625 125.585938 316.757812 125.972656 316.835938 126.371094 C 316.914062 126.769531 316.953125 127.171875 316.953125 127.578125 Z M 316.953125 127.578125 "/>
</g>
</svg>
