<?xml version="1.0" encoding="UTF-8"?>
<svg xmlns="http://www.w3.org/2000/svg" xmlns:xlink="http://www.w3.org/1999/xlink" width="75pt" height="37.5pt" viewBox="0 0 75 37.5" version="1.2">
<defs>
<clipPath id="clip1">
  <path d="M 13.667969 0 L 60.75 0 L 60.75 37 L 13.667969 37 Z M 13.667969 0 "/>
</clipPath>
</defs>
<g id="surface1">
<path style=" stroke:none;fill-rule:nonzero;fill:rgb(0%,0%,0%);fill-opacity:1;" d="M 50.773438 17.34375 C 49.777344 17.34375 49 18.140625 49 19.152344 C 49 19.949219 49.574219 20.382812 50.324219 20.382812 C 51.304688 20.382812 52.097656 19.625 52.097656 18.617188 C 52.105469 17.8125 51.535156 17.34375 50.773438 17.34375 Z M 50.773438 17.34375 "/>
<path style=" stroke:none;fill-rule:nonzero;fill:rgb(0%,0%,0%);fill-opacity:1;" d="M 43.460938 14.636719 L 43.09375 14.632812 C 42.945312 14.632812 42.847656 14.714844 42.832031 14.855469 L 42.488281 17.050781 L 43.140625 17.027344 C 44.203125 17.027344 44.9375 16.78125 44.9375 15.546875 C 44.929688 14.675781 44.152344 14.636719 43.460938 14.636719 Z M 43.460938 14.636719 "/>
<path style=" stroke:none;fill-rule:nonzero;fill:rgb(0%,0%,0%);fill-opacity:1;" d="M 20.246094 14.636719 L 19.863281 14.632812 C 19.742188 14.632812 19.617188 14.714844 19.601562 14.855469 L 19.25 17.050781 L 19.917969 17.027344 C 20.816406 17.027344 21.511719 16.902344 21.675781 15.859375 C 21.867188 14.757812 21.167969 14.636719 20.246094 14.636719 Z M 20.246094 14.636719 "/>
<path style=" stroke:none;fill-rule:nonzero;fill:rgb(0%,0%,0%);fill-opacity:1;" d="M 27.5625 17.34375 C 26.566406 17.34375 25.789062 18.148438 25.789062 19.152344 C 25.789062 19.953125 26.347656 20.382812 27.097656 20.382812 C 28.101562 20.382812 28.894531 19.617188 28.894531 18.617188 C 28.894531 17.8125 28.324219 17.34375 27.5625 17.34375 Z M 27.5625 17.34375 "/>
<g clip-path="url(#clip1)" clip-rule="nonzero">
<path style=" stroke:none;fill-rule:nonzero;fill:rgb(0%,0%,0%);fill-opacity:1;" d="M 60.75 32.894531 L 60.75 3.976562 C 60.75 1.800781 58.992188 0.0351562 56.824219 0.0351562 L 17.589844 0.0351562 C 15.425781 0.0351562 13.667969 1.800781 13.667969 3.976562 L 13.667969 32.894531 C 13.667969 35.070312 15.425781 36.839844 17.589844 36.839844 L 56.824219 36.839844 C 58.992188 36.839844 60.75 35.070312 60.75 32.894531 Z M 20.386719 18.863281 C 19.992188 18.863281 18.996094 18.65625 18.914062 19.25 L 18.546875 21.4375 C 18.523438 21.664062 18.320312 21.90625 18.097656 21.90625 L 16.542969 21.90625 C 16.378906 21.90625 16.257812 21.738281 16.28125 21.574219 L 17.625 13.1875 C 17.640625 12.964844 17.84375 12.800781 18.046875 12.800781 L 21.316406 12.800781 C 22.832031 12.800781 24.15625 13.378906 24.15625 15.101562 C 24.15625 17.46875 22.722656 18.863281 20.386719 18.863281 Z M 30.464844 21.425781 C 30.421875 21.65625 30.234375 21.894531 30.015625 21.894531 L 28.609375 21.894531 C 28.429688 21.894531 28.347656 21.753906 28.347656 21.5625 C 28.347656 21.4375 28.386719 21.175781 28.429688 21.054688 C 27.914062 21.628906 27 22.035156 26.261719 22.035156 C 24.671875 22.035156 23.671875 20.992188 23.671875 19.390625 C 23.671875 17.441406 25.203125 15.675781 27.203125 15.675781 C 27.980469 15.675781 28.667969 15.800781 29.140625 16.496094 C 29.15625 16.277344 29.175781 15.824219 29.484375 15.824219 L 31.035156 15.824219 C 31.199219 15.824219 31.324219 15.988281 31.296875 16.144531 Z M 34.34375 23.863281 C 34.261719 23.984375 34.121094 24.066406 33.976562 24.074219 L 32.40625 24.074219 C 32.265625 24.074219 32.144531 23.960938 32.144531 23.8125 C 32.144531 23.566406 33.597656 21.527344 33.820312 21.214844 C 33.679688 20.78125 32.085938 16.210938 32.085938 16.117188 C 32.085938 15.976562 32.207031 15.828125 32.347656 15.828125 L 33.875 15.828125 C 34.082031 15.828125 34.261719 15.976562 34.324219 16.160156 L 35.226562 19.242188 L 37.390625 16.039062 C 37.472656 15.914062 37.621094 15.832031 37.761719 15.832031 L 39.332031 15.832031 C 39.46875 15.832031 39.589844 15.980469 39.589844 16.121094 C 39.589844 16.175781 39.589844 16.21875 39.550781 16.257812 L 34.34375 23.867188 Z M 43.617188 18.863281 C 43.226562 18.863281 42.230469 18.660156 42.148438 19.25 L 41.777344 21.632812 C 41.738281 21.769531 41.613281 21.894531 41.449219 21.894531 L 39.777344 21.894531 C 39.621094 21.894531 39.5 21.730469 39.515625 21.5625 L 40.839844 13.183594 C 40.863281 12.964844 41.066406 12.800781 41.289062 12.800781 L 44.53125 12.800781 C 46.046875 12.800781 47.371094 13.375 47.371094 15.101562 C 47.371094 17.46875 45.9375 18.863281 43.617188 18.863281 Z M 53.675781 21.425781 C 53.636719 21.65625 53.445312 21.894531 53.226562 21.894531 L 51.8125 21.894531 C 51.632812 21.894531 51.550781 21.753906 51.550781 21.5625 C 51.550781 21.4375 51.609375 21.175781 51.632812 21.054688 C 51.144531 21.628906 50.230469 22.035156 49.46875 22.035156 C 47.875 22.035156 46.878906 20.992188 46.878906 19.390625 C 46.878906 17.441406 48.40625 15.675781 50.40625 15.675781 C 51.199219 15.675781 51.894531 15.800781 52.34375 16.496094 C 52.371094 16.277344 52.386719 15.824219 52.699219 15.824219 L 54.25 15.824219 C 54.414062 15.824219 54.535156 15.988281 54.511719 16.144531 Z M 58.132812 13.113281 L 56.808594 21.425781 C 56.792969 21.65625 56.585938 21.894531 56.382812 21.894531 L 55.035156 21.894531 C 54.871094 21.894531 54.75 21.753906 54.75 21.609375 L 54.773438 21.566406 L 56.097656 13.023438 C 56.113281 12.898438 56.238281 12.800781 56.359375 12.800781 L 57.871094 12.800781 C 58.007812 12.800781 58.132812 12.925781 58.132812 13.085938 Z M 58.132812 13.113281 "/>
</g>
</g>
</svg>
