<?xml version="1.0" encoding="UTF-8"?>
<svg xmlns="http://www.w3.org/2000/svg" xmlns:xlink="http://www.w3.org/1999/xlink" width="75pt" height="37.5pt" viewBox="0 0 75 37.5" version="1.2">
<defs>
<clipPath id="clip1">
  <path d="M 15.878906 1.394531 L 58.804688 1.394531 L 58.804688 35 L 15.878906 35 Z M 15.878906 1.394531 "/>
</clipPath>
</defs>
<g id="surface1">
<path style=" stroke:none;fill-rule:nonzero;fill:rgb(100%,100%,100%);fill-opacity:1;" d="M 49.710938 17.339844 C 48.800781 17.34375 48.09375 18.0625 48.09375 18.972656 C 48.09375 19.691406 48.617188 20.082031 49.300781 20.082031 C 50.195312 20.082031 50.917969 19.398438 50.917969 18.488281 C 50.925781 17.765625 50.40625 17.339844 49.710938 17.339844 Z M 49.710938 17.339844 "/>
<path style=" stroke:none;fill-rule:nonzero;fill:rgb(100%,100%,100%);fill-opacity:1;" d="M 43.042969 14.902344 L 42.707031 14.898438 C 42.574219 14.898438 42.484375 14.972656 42.46875 15.101562 L 42.15625 17.078125 L 42.75 17.054688 C 43.71875 17.054688 44.390625 16.832031 44.390625 15.722656 C 44.382812 14.9375 43.675781 14.902344 43.042969 14.902344 Z M 43.042969 14.902344 "/>
<path style=" stroke:none;fill-rule:nonzero;fill:rgb(100%,100%,100%);fill-opacity:1;" d="M 21.875 14.902344 L 21.527344 14.898438 C 21.414062 14.898438 21.300781 14.972656 21.289062 15.101562 L 20.964844 17.078125 L 21.574219 17.054688 C 22.398438 17.054688 23.027344 16.945312 23.179688 16.003906 C 23.351562 15.011719 22.714844 14.902344 21.875 14.902344 Z M 21.875 14.902344 "/>
<path style=" stroke:none;fill-rule:nonzero;fill:rgb(100%,100%,100%);fill-opacity:1;" d="M 28.546875 17.34375 C 27.640625 17.34375 26.929688 18.066406 26.929688 18.972656 C 26.929688 19.695312 27.4375 20.082031 28.125 20.082031 C 29.039062 20.082031 29.761719 19.390625 29.761719 18.488281 C 29.761719 17.765625 29.238281 17.34375 28.546875 17.34375 Z M 28.546875 17.34375 "/>
<g clip-path="url(#clip1)" clip-rule="nonzero">
<path style=" stroke:none;fill-rule:nonzero;fill:rgb(100%,100%,100%);fill-opacity:1;" d="M 58.804688 31.359375 L 58.804688 5.296875 C 58.804688 3.332031 57.203125 1.742188 55.226562 1.742188 L 19.453125 1.742188 C 17.480469 1.742188 15.878906 3.332031 15.878906 5.296875 L 15.878906 31.359375 C 15.878906 33.320312 17.480469 34.914062 19.453125 34.914062 L 55.226562 34.914062 C 57.203125 34.914062 58.804688 33.320312 58.804688 31.359375 Z M 22.003906 18.714844 C 21.644531 18.714844 20.738281 18.527344 20.660156 19.0625 L 20.324219 21.03125 C 20.304688 21.238281 20.117188 21.453125 19.914062 21.453125 L 18.5 21.453125 C 18.347656 21.453125 18.238281 21.304688 18.261719 21.15625 L 19.484375 13.59375 C 19.5 13.394531 19.683594 13.246094 19.871094 13.246094 L 22.851562 13.246094 C 24.234375 13.246094 25.4375 13.765625 25.4375 15.320312 C 25.4375 17.453125 24.136719 18.714844 22.003906 18.714844 Z M 31.191406 21.023438 C 31.152344 21.230469 30.980469 21.445312 30.78125 21.445312 L 29.5 21.445312 C 29.335938 21.445312 29.261719 21.320312 29.261719 21.144531 C 29.261719 21.035156 29.300781 20.796875 29.335938 20.6875 C 28.867188 21.207031 28.03125 21.570312 27.363281 21.570312 C 25.910156 21.570312 25 20.628906 25 19.1875 C 25 17.429688 26.394531 15.839844 28.21875 15.839844 C 28.925781 15.839844 29.554688 15.953125 29.984375 16.578125 C 30 16.378906 30.015625 15.972656 30.300781 15.972656 L 31.714844 15.972656 C 31.863281 15.972656 31.976562 16.121094 31.953125 16.261719 Z M 34.730469 23.21875 C 34.652344 23.328125 34.527344 23.402344 34.394531 23.410156 L 32.960938 23.410156 C 32.835938 23.410156 32.722656 23.304688 32.722656 23.171875 C 32.722656 22.953125 34.050781 21.113281 34.25 20.832031 C 34.125 20.441406 32.671875 16.324219 32.671875 16.234375 C 32.671875 16.109375 32.78125 15.976562 32.910156 15.976562 L 34.304688 15.976562 C 34.488281 15.976562 34.652344 16.109375 34.714844 16.273438 L 35.535156 19.050781 L 37.507812 16.164062 C 37.585938 16.054688 37.71875 15.980469 37.84375 15.980469 L 39.277344 15.980469 C 39.402344 15.980469 39.515625 16.113281 39.515625 16.238281 C 39.515625 16.289062 39.515625 16.328125 39.476562 16.363281 L 34.730469 23.222656 Z M 43.1875 18.714844 C 42.828125 18.714844 41.917969 18.527344 41.84375 19.0625 L 41.507812 21.207031 C 41.472656 21.332031 41.359375 21.445312 41.210938 21.445312 L 39.683594 21.445312 C 39.539062 21.445312 39.429688 21.296875 39.445312 21.144531 L 40.652344 13.59375 C 40.671875 13.394531 40.859375 13.246094 41.0625 13.246094 L 44.019531 13.246094 C 45.402344 13.246094 46.605469 13.765625 46.605469 15.320312 L 46.609375 15.320312 C 46.605469 17.453125 45.300781 18.714844 43.1875 18.714844 Z M 52.355469 21.023438 C 52.320312 21.230469 52.148438 21.445312 51.945312 21.445312 L 50.65625 21.445312 C 50.492188 21.445312 50.417969 21.320312 50.417969 21.144531 C 50.417969 21.035156 50.472656 20.796875 50.496094 20.6875 C 50.046875 21.207031 49.214844 21.570312 48.519531 21.570312 C 47.066406 21.570312 46.15625 20.628906 46.15625 19.1875 C 46.15625 17.429688 47.550781 15.839844 49.375 15.839844 C 50.097656 15.839844 50.734375 15.953125 51.140625 16.578125 C 51.164062 16.378906 51.179688 15.972656 51.464844 15.972656 L 52.878906 15.972656 C 53.027344 15.972656 53.140625 16.121094 53.117188 16.261719 Z M 56.421875 13.527344 L 55.214844 21.023438 C 55.195312 21.230469 55.011719 21.445312 54.824219 21.445312 L 53.597656 21.445312 C 53.445312 21.445312 53.335938 21.320312 53.335938 21.1875 L 53.355469 21.148438 L 54.5625 13.449219 C 54.578125 13.335938 54.691406 13.246094 54.800781 13.246094 L 56.179688 13.246094 C 56.308594 13.246094 56.417969 13.359375 56.417969 13.503906 L 56.417969 13.527344 Z M 56.421875 13.527344 "/>
</g>
</g>
</svg>
