<?xml version="1.0" encoding="UTF-8"?>
<svg xmlns="http://www.w3.org/2000/svg" xmlns:xlink="http://www.w3.org/1999/xlink" width="75pt" height="37.5pt" viewBox="0 0 75 37.5" version="1.2">
<defs>
<clipPath id="clip1">
  <path d="M 5.378906 11 L 41 11 L 41 28.449219 L 5.378906 28.449219 Z M 5.378906 11 "/>
</clipPath>
<clipPath id="clip2">
  <path d="M 41 8.464844 L 69.769531 8.464844 L 69.769531 28.449219 L 41 28.449219 Z M 41 8.464844 "/>
</clipPath>
</defs>
<g id="surface1">
<g clip-path="url(#clip1)" clip-rule="nonzero">
<path style=" stroke:none;fill-rule:nonzero;fill:rgb(0%,0%,0%);fill-opacity:1;" d="M 12.878906 11.371094 L 6.394531 11.371094 C 6.027344 11.371094 5.730469 11.589844 5.726562 12.03125 L 5.667969 27.816406 C 5.667969 28.210938 5.929688 28.40625 6.285156 28.40625 C 7.257812 28.40625 8.050781 28.40625 9.023438 28.40625 C 9.363281 28.40625 9.640625 28.242188 9.640625 27.914062 C 9.640625 26.453125 9.640625 24.652344 9.640625 23.191406 L 12.453125 23.203125 C 14.308594 23.082031 15.546875 22.226562 16.0625 20.503906 C 16.21875 19.988281 16.246094 19.539062 16.246094 19.007812 L 16.394531 15.246094 C 16.257812 12.601562 14.867188 11.59375 12.878906 11.371094 Z M 12.28125 18.542969 C 12.28125 18.929688 11.960938 19.246094 11.574219 19.246094 L 9.640625 19.246094 L 9.640625 15.300781 L 11.574219 15.300781 C 11.960938 15.300781 12.28125 15.617188 12.28125 16.003906 Z M 24.121094 11.359375 L 19.589844 11.359375 C 19.246094 11.359375 18.949219 11.460938 18.949219 11.820312 C 18.949219 12.746094 18.949219 13.785156 18.949219 14.710938 C 18.988281 15.097656 19.253906 15.300781 19.636719 15.300781 L 23.417969 15.300781 C 24.203125 15.300781 24.121094 16.578125 23.417969 16.617188 L 21.34375 16.617188 C 19.039062 16.617188 17.582031 18.671875 17.582031 20.742188 C 17.582031 21.292969 17.589844 22.589844 17.582031 23.191406 C 17.574219 24.046875 17.566406 24.914062 17.730469 25.6875 C 18.027344 27.054688 19.21875 28.449219 21.019531 28.449219 L 26.617188 28.449219 C 27.335938 28.449219 28.171875 27.824219 28.171875 27 L 28.171875 16.125 C 28.207031 13.253906 26.773438 11.511719 24.121094 11.359375 Z M 24.203125 23.914062 C 24.203125 24.238281 23.933594 24.503906 23.609375 24.503906 L 22.148438 24.503906 C 21.820312 24.503906 21.554688 24.238281 21.554688 23.914062 L 21.554688 21.152344 C 21.554688 20.824219 21.820312 20.5625 22.148438 20.5625 L 23.609375 20.5625 C 23.933594 20.5625 24.203125 20.824219 24.203125 21.152344 Z M 29.5 12.136719 L 29.5 19.511719 C 29.664062 21.613281 31.628906 23.191406 33.695312 23.191406 L 35.566406 23.191406 C 36.359375 23.191406 36.3125 24.464844 35.566406 24.464844 L 31.472656 24.464844 C 31.023438 24.464844 30.859375 24.695312 30.859375 25.089844 L 30.859375 27.917969 C 30.859375 28.214844 31.101562 28.441406 31.417969 28.441406 L 35.335938 28.441406 C 38.535156 28.441406 40.089844 26.914062 40.089844 23.5 L 40.089844 11.878906 C 40.089844 11.515625 39.859375 11.375 39.636719 11.375 L 36.589844 11.375 C 36.292969 11.375 36.117188 11.695312 36.117188 11.929688 L 36.117188 18.789062 C 36.117188 19.050781 35.972656 19.207031 35.734375 19.207031 L 34.011719 19.207031 C 33.664062 19.207031 33.472656 19.015625 33.472656 18.683594 L 33.472656 12.035156 C 33.46875 11.644531 33.3125 11.359375 32.875 11.359375 C 31.847656 11.359375 30.96875 11.359375 29.9375 11.359375 C 29.585938 11.359375 29.5 11.703125 29.5 12.136719 Z M 29.5 12.136719 "/>
</g>
<g clip-path="url(#clip2)" clip-rule="nonzero">
<path style=" stroke:none;fill-rule:nonzero;fill:rgb(26.669312%,26.669312%,26.669312%);fill-opacity:1;" d="M 41.464844 14.734375 L 41.464844 11.925781 C 41.464844 11.613281 41.71875 11.359375 42.03125 11.359375 L 42.738281 11.359375 C 44.546875 10.984375 45.1875 10.542969 46.296875 9.355469 C 46.976562 8.625 47.574219 8.429688 48.015625 9.207031 L 48.03125 11.359375 L 50.109375 11.359375 C 50.425781 11.359375 50.679688 11.613281 50.679688 11.925781 L 50.679688 14.734375 C 50.679688 15.046875 50.421875 15.300781 50.109375 15.300781 L 48.03125 15.300781 L 48.03125 27.882812 C 48.03125 28.195312 47.777344 28.449219 47.464844 28.449219 L 44.628906 28.449219 C 44.316406 28.449219 44.0625 28.195312 44.0625 27.882812 L 44.0625 15.300781 L 42.035156 15.300781 C 41.722656 15.300781 41.464844 15.046875 41.464844 14.734375 Z M 62.582031 27.746094 C 62.582031 28.132812 62.261719 28.449219 61.871094 28.449219 L 59.339844 28.449219 C 58.949219 28.449219 58.625 28.132812 58.625 27.746094 L 58.625 16.578125 C 58.625 14.890625 55.976562 14.890625 55.976562 16.578125 L 55.976562 27.746094 C 55.976562 28.132812 55.65625 28.449219 55.261719 28.449219 L 52.71875 28.449219 C 52.324219 28.449219 52.003906 28.132812 52.003906 27.746094 L 52.003906 12.0625 C 52.003906 11.675781 52.324219 11.359375 52.71875 11.359375 L 55.335938 11.359375 C 55.726562 11.359375 56.050781 11.675781 56.050781 12.0625 L 56.050781 12.449219 C 57.796875 10.78125 60.421875 11.167969 61.894531 12.746094 C 64.671875 9.585938 69.429688 12.402344 69.207031 15.871094 C 69.207031 19.703125 69.171875 23.878906 69.171875 27.746094 C 69.171875 28.132812 68.847656 28.449219 68.460938 28.449219 L 65.957031 28.449219 C 65.5625 28.449219 65.242188 28.132812 65.242188 27.746094 C 65.242188 24.082031 65.242188 20.25 65.242188 16.648438 C 65.242188 14.929688 62.59375 14.847656 62.59375 16.648438 L 62.59375 27.746094 Z M 62.582031 27.746094 "/>
</g>
</g>
</svg>
