<?xml version="1.0" encoding="UTF-8"?>
<svg xmlns="http://www.w3.org/2000/svg" xmlns:xlink="http://www.w3.org/1999/xlink" width="75pt" height="37.5pt" viewBox="0 0 75 37.5" version="1.2">
<defs>
<clipPath id="clip1">
  <path d="M 13.304688 1.023438 L 61.414062 1.023438 L 61.414062 35.808594 L 13.304688 35.808594 Z M 13.304688 1.023438 "/>
</clipPath>
</defs>
<g id="surface1">
<g clip-path="url(#clip1)" clip-rule="nonzero">
<path style=" stroke:none;fill-rule:nonzero;fill:rgb(0%,0%,0%);fill-opacity:1;" d="M 60.113281 1.023438 L 17.515625 1.023438 C 15.160156 1.023438 13.320312 2.558594 13.320312 4.519531 L 13.320312 31.605469 C 13.320312 33.921875 15.203125 35.808594 17.515625 35.808594 L 57.203125 35.808594 C 59.519531 35.808594 61.398438 33.921875 61.398438 31.605469 L 61.398438 2.3125 C 61.398438 1.601562 60.824219 1.023438 60.113281 1.023438 Z M 45.070312 5.503906 C 45.070312 4.800781 45.640625 4.230469 46.34375 4.230469 C 47.046875 4.230469 47.617188 4.800781 47.617188 5.503906 C 47.617188 6.207031 47.046875 6.777344 46.34375 6.777344 C 45.640625 6.777344 45.070312 6.207031 45.070312 5.503906 Z M 49.269531 5.503906 C 49.269531 4.800781 49.839844 4.230469 50.542969 4.230469 C 51.246094 4.230469 51.816406 4.800781 51.816406 5.503906 C 51.816406 6.207031 51.246094 6.777344 50.542969 6.777344 C 49.839844 6.777344 49.269531 6.207031 49.269531 5.503906 Z M 53.464844 5.503906 C 53.464844 4.800781 54.035156 4.230469 54.738281 4.230469 C 55.441406 4.230469 56.011719 4.800781 56.011719 5.503906 C 56.011719 6.207031 55.441406 6.777344 54.738281 6.777344 C 54.035156 6.777344 53.464844 6.207031 53.464844 5.503906 Z M 57.203125 33.230469 L 17.515625 33.230469 C 16.621094 33.230469 15.894531 32.503906 15.894531 31.609375 L 15.894531 10.742188 L 58.824219 10.953125 L 58.824219 31.609375 C 58.824219 32.503906 58.09375 33.230469 57.203125 33.230469 Z M 57.203125 33.230469 "/>
</g>
<path style=" stroke:none;fill-rule:nonzero;fill:rgb(0%,0%,0%);fill-opacity:1;" d="M 38.195312 20.902344 L 38.195312 29.9375 L 40.519531 27.617188 L 42.203125 30.867188 L 43.429688 30.234375 L 41.804688 27.101562 L 44.941406 27.101562 Z M 38.195312 20.902344 "/>
<path style=" stroke:none;fill-rule:nonzero;fill:rgb(0%,0%,0%);fill-opacity:1;" d="M 45.203125 20.738281 C 45.199219 20.691406 45.195312 20.648438 45.195312 20.605469 C 45.183594 20.5 45.171875 20.390625 45.15625 20.285156 C 45.15625 20.269531 45.152344 20.253906 45.152344 20.234375 C 45.136719 20.125 45.117188 20.011719 45.097656 19.902344 C 45.097656 19.894531 45.097656 19.886719 45.09375 19.878906 C 44.425781 16.164062 41.339844 13.285156 37.523438 12.945312 C 37.519531 12.945312 37.515625 12.945312 37.507812 12.945312 C 37.390625 12.933594 37.273438 12.925781 37.15625 12.917969 C 37.023438 12.910156 36.894531 12.910156 36.761719 12.910156 C 36.625 12.910156 36.496094 12.914062 36.363281 12.917969 C 36.246094 12.925781 36.128906 12.933594 36.011719 12.945312 C 36.007812 12.945312 36 12.945312 35.996094 12.945312 C 32.179688 13.289062 29.09375 16.164062 28.425781 19.878906 C 28.425781 19.886719 28.421875 19.894531 28.421875 19.902344 C 28.402344 20.011719 28.382812 20.125 28.371094 20.234375 C 28.367188 20.253906 28.367188 20.269531 28.363281 20.285156 C 28.347656 20.390625 28.335938 20.5 28.328125 20.605469 C 28.324219 20.648438 28.320312 20.691406 28.316406 20.738281 C 28.308594 20.820312 28.304688 20.902344 28.300781 20.988281 C 28.292969 21.121094 28.289062 21.253906 28.289062 21.390625 C 28.289062 21.523438 28.292969 21.65625 28.300781 21.789062 C 28.304688 21.875 28.3125 21.964844 28.316406 22.050781 C 28.320312 22.089844 28.324219 22.128906 28.328125 22.167969 C 28.335938 22.277344 28.347656 22.390625 28.363281 22.5 C 28.367188 22.511719 28.367188 22.523438 28.367188 22.535156 C 28.382812 22.65625 28.402344 22.773438 28.425781 22.886719 C 28.425781 22.890625 28.425781 22.890625 28.425781 22.894531 C 29.046875 26.367188 31.785156 29.101562 35.253906 29.726562 C 35.253906 29.726562 35.253906 29.726562 35.253906 29.730469 C 35.28125 29.734375 35.304688 29.738281 35.332031 29.742188 C 35.410156 29.753906 35.492188 29.765625 35.570312 29.777344 C 35.625 29.785156 35.679688 29.792969 35.734375 29.800781 C 35.808594 29.808594 35.882812 29.816406 35.957031 29.824219 C 36.03125 29.832031 36.105469 29.835938 36.175781 29.839844 C 36.238281 29.84375 36.292969 29.851562 36.355469 29.851562 C 36.488281 29.859375 36.625 29.863281 36.761719 29.863281 L 36.785156 29.863281 L 36.785156 27.886719 C 36.777344 27.886719 36.769531 27.890625 36.761719 27.890625 C 36.382812 27.890625 36.011719 27.855469 35.648438 27.792969 C 35.371094 26.941406 35.117188 25.816406 34.957031 24.429688 C 35.542969 24.46875 36.144531 24.488281 36.761719 24.488281 L 36.785156 24.488281 L 36.785156 23.359375 L 36.761719 23.359375 C 36.085938 23.359375 35.449219 23.335938 34.851562 23.296875 C 34.8125 22.699219 34.789062 22.066406 34.789062 21.390625 C 34.789062 20.710938 34.8125 20.074219 34.851562 19.480469 C 35.449219 19.4375 36.085938 19.417969 36.761719 19.417969 C 37.433594 19.417969 38.070312 19.4375 38.664062 19.480469 C 38.667969 19.515625 38.671875 19.546875 38.671875 19.582031 C 38.84375 19.640625 39.007812 19.738281 39.148438 19.867188 L 39.84375 20.503906 C 39.832031 20.191406 39.816406 19.886719 39.800781 19.582031 C 41.1875 19.742188 42.308594 20 43.160156 20.277344 C 43.222656 20.636719 43.257812 21.007812 43.257812 21.390625 C 43.257812 21.769531 43.222656 22.136719 43.160156 22.5 C 42.894531 22.585938 42.605469 22.667969 42.289062 22.75 L 42.953125 23.359375 L 44.515625 24.796875 C 44.78125 24.195312 44.972656 23.558594 45.09375 22.894531 C 45.097656 22.878906 45.101562 22.863281 45.105469 22.84375 C 45.117188 22.757812 45.132812 22.671875 45.144531 22.585938 C 45.152344 22.539062 45.15625 22.492188 45.164062 22.445312 C 45.171875 22.363281 45.183594 22.28125 45.191406 22.195312 C 45.199219 22.132812 45.203125 22.066406 45.207031 22.003906 C 45.210938 21.933594 45.214844 21.867188 45.21875 21.800781 C 45.226562 21.664062 45.230469 21.527344 45.230469 21.390625 C 45.230469 21.253906 45.226562 21.121094 45.222656 20.988281 C 45.214844 20.902344 45.210938 20.820312 45.203125 20.738281 Z M 30.261719 21.390625 C 30.261719 21.007812 30.296875 20.636719 30.359375 20.277344 C 31.210938 19.996094 32.332031 19.742188 33.71875 19.582031 C 33.683594 20.167969 33.664062 20.769531 33.664062 21.390625 C 33.664062 22.007812 33.683594 22.609375 33.71875 23.191406 C 32.332031 23.035156 31.210938 22.777344 30.359375 22.5 C 30.296875 22.136719 30.261719 21.769531 30.261719 21.390625 Z M 30.722656 23.785156 C 31.628906 24.027344 32.675781 24.214844 33.816406 24.335938 C 33.933594 25.476562 34.121094 26.523438 34.363281 27.429688 C 32.707031 26.769531 31.382812 25.445312 30.722656 23.785156 Z M 33.816406 18.441406 C 32.675781 18.558594 31.628906 18.75 30.722656 18.988281 C 31.382812 17.332031 32.707031 16.007812 34.363281 15.34375 C 34.121094 16.253906 33.933594 17.296875 33.816406 18.441406 Z M 36.761719 18.289062 C 36.144531 18.289062 35.542969 18.308594 34.957031 18.34375 C 35.117188 16.957031 35.371094 15.835938 35.648438 14.980469 C 36.011719 14.917969 36.382812 14.882812 36.761719 14.882812 C 37.136719 14.882812 37.507812 14.917969 37.867188 14.980469 C 38.144531 15.832031 38.402344 16.957031 38.558594 18.34375 C 37.976562 18.308594 37.375 18.289062 36.761719 18.289062 Z M 39.703125 18.441406 C 39.582031 17.300781 39.394531 16.253906 39.15625 15.34375 C 40.8125 16.003906 42.136719 17.332031 42.796875 18.988281 C 41.890625 18.746094 40.84375 18.558594 39.703125 18.441406 Z M 39.703125 18.441406 "/>
</g>
</svg>
