<?xml version="1.0" encoding="UTF-8"?>
<svg xmlns="http://www.w3.org/2000/svg" xmlns:xlink="http://www.w3.org/1999/xlink" width="75pt" height="37.5pt" viewBox="0 0 75 37.5" version="1.2">
<defs>
<clipPath id="clip1">
  <path d="M 44 0 L 53.851562 0 L 53.851562 10 L 44 10 Z M 44 0 "/>
</clipPath>
<clipPath id="clip2">
  <path d="M 21.285156 0 L 53.851562 0 L 53.851562 37 L 21.285156 37 Z M 21.285156 0 "/>
</clipPath>
</defs>
<g id="surface1">
<g clip-path="url(#clip1)" clip-rule="nonzero">
<path style=" stroke:none;fill-rule:nonzero;fill:rgb(0%,0%,0%);fill-opacity:1;" d="M 44.125 9.527344 L 53.5625 9.542969 L 44.175781 0.199219 Z M 44.125 9.527344 "/>
</g>
<g clip-path="url(#clip2)" clip-rule="nonzero">
<path style=" stroke:none;fill-rule:nonzero;fill:rgb(0%,0%,0%);fill-opacity:1;" d="M 50.855469 14.996094 L 24.320312 14.996094 L 24.320312 13.394531 L 50.855469 13.394531 Z M 50.855469 19.160156 L 24.320312 19.160156 L 24.320312 17.558594 L 50.855469 17.558594 Z M 50.855469 23.324219 L 24.320312 23.324219 L 24.320312 21.722656 L 50.855469 21.722656 Z M 50.855469 27.488281 L 24.320312 27.488281 L 24.320312 25.882812 L 50.855469 25.882812 Z M 50.855469 31.652344 L 24.320312 31.652344 L 24.320312 30.046875 L 50.855469 30.046875 Z M 24.320312 9.230469 L 39.917969 9.230469 L 39.917969 10.832031 L 24.320312 10.832031 Z M 24.320312 5.066406 L 39.917969 5.066406 L 39.917969 6.667969 L 24.320312 6.667969 Z M 43.054688 10.792969 L 43.109375 0.0078125 L 21.285156 0.0078125 L 21.285156 37 L 53.851562 37 L 53.851562 10.8125 L 43.054688 10.792969 "/>
</g>
</g>
</svg>
