<?xml version="1.0" encoding="UTF-8"?>
<svg xmlns="http://www.w3.org/2000/svg" xmlns:xlink="http://www.w3.org/1999/xlink" width="224.87999pt" height="225pt" viewBox="0 0 224.87999 225" version="1.2">
<defs>
<clipPath id="clip1">
  <path d="M 82 35.199219 L 146 35.199219 L 146 99 L 82 99 Z M 82 35.199219 "/>
</clipPath>
<clipPath id="clip2">
  <path d="M 0 175 L 224.761719 175 L 224.761719 189.613281 L 0 189.613281 Z M 0 175 "/>
</clipPath>
<clipPath id="clip3">
  <path d="M 166 112 L 224.761719 112 L 224.761719 169 L 166 169 Z M 166 112 "/>
</clipPath>
</defs>
<g id="surface1">
<g clip-path="url(#clip1)" clip-rule="nonzero">
<path style=" stroke:none;fill-rule:nonzero;fill:rgb(19.999695%,19.999695%,19.999695%);fill-opacity:1;" d="M 145.820312 66.78125 C 145.820312 67.816406 145.769531 68.847656 145.667969 69.878906 C 145.566406 70.910156 145.414062 71.929688 145.214844 72.945312 C 145.011719 73.960938 144.757812 74.960938 144.457031 75.953125 C 144.160156 76.941406 143.808594 77.914062 143.414062 78.871094 C 143.015625 79.824219 142.574219 80.761719 142.085938 81.671875 C 141.597656 82.585938 141.066406 83.472656 140.492188 84.332031 C 139.914062 85.191406 139.300781 86.019531 138.640625 86.820312 C 137.984375 87.621094 137.289062 88.386719 136.558594 89.117188 C 135.824219 89.847656 135.058594 90.542969 134.257812 91.199219 C 133.457031 91.855469 132.628906 92.46875 131.765625 93.046875 C 130.90625 93.621094 130.019531 94.152344 129.105469 94.640625 C 128.191406 95.125 127.253906 95.566406 126.296875 95.964844 C 125.34375 96.359375 124.367188 96.707031 123.375 97.007812 C 122.386719 97.308594 121.382812 97.558594 120.367188 97.761719 C 119.351562 97.964844 118.328125 98.113281 117.296875 98.214844 C 116.265625 98.316406 115.234375 98.367188 114.195312 98.367188 C 113.160156 98.367188 112.128906 98.316406 111.097656 98.214844 C 110.066406 98.113281 109.042969 97.964844 108.027344 97.761719 C 107.011719 97.558594 106.007812 97.308594 105.015625 97.007812 C 104.027344 96.707031 103.050781 96.359375 102.09375 95.964844 C 101.136719 95.566406 100.203125 95.125 99.289062 94.640625 C 98.375 94.152344 97.488281 93.621094 96.628906 93.046875 C 95.765625 92.46875 94.9375 91.855469 94.136719 91.199219 C 93.335938 90.542969 92.566406 89.847656 91.835938 89.117188 C 91.101562 88.386719 90.410156 87.621094 89.75 86.820312 C 89.09375 86.019531 88.476562 85.191406 87.902344 84.332031 C 87.328125 83.472656 86.796875 82.585938 86.308594 81.671875 C 85.820312 80.761719 85.375 79.824219 84.980469 78.871094 C 84.582031 77.914062 84.234375 76.941406 83.933594 75.953125 C 83.632812 74.960938 83.382812 73.960938 83.179688 72.945312 C 82.980469 71.929688 82.828125 70.910156 82.726562 69.878906 C 82.625 68.847656 82.574219 67.816406 82.574219 66.78125 C 82.574219 65.75 82.625 64.714844 82.726562 63.6875 C 82.828125 62.65625 82.980469 61.636719 83.179688 60.621094 C 83.382812 59.605469 83.632812 58.605469 83.933594 57.613281 C 84.234375 56.625 84.582031 55.652344 84.980469 54.695312 C 85.375 53.738281 85.820312 52.804688 86.308594 51.894531 C 86.796875 50.980469 87.328125 50.09375 87.902344 49.234375 C 88.476562 48.375 89.09375 47.546875 89.75 46.746094 C 90.410156 45.945312 91.101562 45.179688 91.835938 44.449219 C 92.566406 43.71875 93.335938 43.023438 94.136719 42.367188 C 94.9375 41.710938 95.765625 41.09375 96.628906 40.519531 C 97.488281 39.945312 98.375 39.414062 99.289062 38.925781 C 100.203125 38.4375 101.136719 37.996094 102.09375 37.601562 C 103.050781 37.207031 104.027344 36.859375 105.015625 36.558594 C 106.007812 36.257812 107.011719 36.007812 108.027344 35.804688 C 109.042969 35.601562 110.066406 35.449219 111.097656 35.347656 C 112.128906 35.25 113.160156 35.199219 114.195312 35.199219 C 115.234375 35.199219 116.265625 35.25 117.296875 35.347656 C 118.328125 35.449219 119.351562 35.601562 120.367188 35.804688 C 121.382812 36.007812 122.386719 36.257812 123.375 36.558594 C 124.367188 36.859375 125.34375 37.207031 126.296875 37.601562 C 127.253906 37.996094 128.191406 38.4375 129.105469 38.925781 C 130.019531 39.414062 130.90625 39.945312 131.765625 40.519531 C 132.628906 41.09375 133.457031 41.710938 134.257812 42.367188 C 135.058594 43.023438 135.824219 43.71875 136.558594 44.449219 C 137.289062 45.179688 137.984375 45.945312 138.640625 46.746094 C 139.300781 47.546875 139.914062 48.375 140.492188 49.234375 C 141.066406 50.09375 141.597656 50.980469 142.085938 51.894531 C 142.574219 52.804688 143.015625 53.738281 143.414062 54.695312 C 143.808594 55.652344 144.160156 56.625 144.457031 57.613281 C 144.757812 58.605469 145.011719 59.605469 145.214844 60.621094 C 145.414062 61.636719 145.566406 62.65625 145.667969 63.6875 C 145.769531 64.714844 145.820312 65.75 145.820312 66.78125 Z M 145.820312 66.78125 "/>
</g>
<g clip-path="url(#clip2)" clip-rule="nonzero">
<path style=" stroke:none;fill-rule:nonzero;fill:rgb(19.999695%,19.999695%,19.999695%);fill-opacity:1;" d="M 217.851562 189.613281 L 7.027344 189.613281 C 3.164062 189.613281 0 186.457031 0 182.597656 C 0 178.734375 3.164062 175.578125 7.027344 175.578125 L 217.851562 175.578125 C 221.71875 175.578125 224.878906 178.734375 224.878906 182.597656 C 224.878906 186.457031 221.71875 189.613281 217.851562 189.613281 Z M 217.851562 189.613281 "/>
</g>
<path style=" stroke:none;fill-rule:nonzero;fill:rgb(19.999695%,19.999695%,19.999695%);fill-opacity:1;" d="M 166.902344 147.5 C 166.902344 124.339844 147.929688 105.386719 124.738281 105.386719 L 105.414062 105.386719 C 82.222656 105.386719 63.246094 124.339844 63.246094 147.5 L 63.246094 168.558594 L 166.902344 168.558594 Z M 166.902344 147.5 "/>
<path style=" stroke:none;fill-rule:nonzero;fill:rgb(19.999695%,19.999695%,19.999695%);fill-opacity:1;" d="M 205.554688 77.488281 C 205.554688 78.414062 205.507812 79.335938 205.417969 80.257812 C 205.328125 81.175781 205.191406 82.089844 205.011719 83 C 204.832031 83.90625 204.605469 84.800781 204.335938 85.6875 C 204.066406 86.574219 203.753906 87.445312 203.402344 88.296875 C 203.046875 89.152344 202.652344 89.988281 202.214844 90.804688 C 201.777344 91.621094 201.300781 92.414062 200.789062 93.183594 C 200.273438 93.953125 199.722656 94.695312 199.132812 95.410156 C 198.546875 96.125 197.925781 96.808594 197.269531 97.464844 C 196.613281 98.117188 195.929688 98.738281 195.214844 99.324219 C 194.496094 99.914062 193.753906 100.464844 192.984375 100.976562 C 192.214844 101.492188 191.417969 101.964844 190.601562 102.402344 C 189.785156 102.839844 188.949219 103.234375 188.09375 103.585938 C 187.238281 103.941406 186.367188 104.253906 185.480469 104.523438 C 184.59375 104.789062 183.695312 105.015625 182.785156 105.195312 C 181.878906 105.375 180.964844 105.511719 180.042969 105.601562 C 179.121094 105.691406 178.195312 105.738281 177.269531 105.738281 C 176.34375 105.738281 175.417969 105.691406 174.496094 105.601562 C 173.574219 105.511719 172.660156 105.375 171.75 105.195312 C 170.84375 105.015625 169.945312 104.789062 169.058594 104.523438 C 168.171875 104.253906 167.300781 103.941406 166.445312 103.585938 C 165.589844 103.234375 164.75 102.839844 163.933594 102.402344 C 163.117188 101.964844 162.324219 101.492188 161.554688 100.976562 C 160.785156 100.464844 160.039062 99.914062 159.324219 99.324219 C 158.609375 98.738281 157.921875 98.117188 157.269531 97.464844 C 156.613281 96.808594 155.992188 96.125 155.402344 95.410156 C 154.816406 94.695312 154.265625 93.953125 153.75 93.183594 C 153.234375 92.414062 152.757812 91.621094 152.324219 90.804688 C 151.886719 89.988281 151.492188 89.152344 151.136719 88.296875 C 150.78125 87.445312 150.46875 86.574219 150.199219 85.6875 C 149.933594 84.800781 149.707031 83.90625 149.527344 83 C 149.347656 82.089844 149.210938 81.175781 149.121094 80.257812 C 149.027344 79.335938 148.984375 78.414062 148.984375 77.488281 C 148.984375 76.5625 149.027344 75.636719 149.121094 74.71875 C 149.210938 73.796875 149.347656 72.882812 149.527344 71.976562 C 149.707031 71.066406 149.933594 70.171875 150.199219 69.285156 C 150.46875 68.402344 150.78125 67.53125 151.136719 66.675781 C 151.492188 65.820312 151.886719 64.984375 152.324219 64.167969 C 152.757812 63.351562 153.234375 62.5625 153.75 61.792969 C 154.265625 61.023438 154.816406 60.28125 155.402344 59.5625 C 155.992188 58.847656 156.613281 58.164062 157.269531 57.511719 C 157.921875 56.855469 158.609375 56.234375 159.324219 55.648438 C 160.039062 55.0625 160.785156 54.511719 161.554688 53.996094 C 162.324219 53.484375 163.117188 53.007812 163.933594 52.570312 C 164.75 52.136719 165.589844 51.738281 166.445312 51.386719 C 167.300781 51.03125 168.171875 50.71875 169.058594 50.453125 C 169.945312 50.183594 170.84375 49.957031 171.75 49.777344 C 172.660156 49.597656 173.574219 49.460938 174.496094 49.371094 C 175.417969 49.28125 176.34375 49.234375 177.269531 49.234375 C 178.195312 49.234375 179.121094 49.28125 180.042969 49.371094 C 180.964844 49.460938 181.878906 49.597656 182.785156 49.777344 C 183.695312 49.957031 184.59375 50.183594 185.480469 50.453125 C 186.367188 50.71875 187.238281 51.03125 188.09375 51.386719 C 188.949219 51.738281 189.785156 52.136719 190.601562 52.570312 C 191.417969 53.007812 192.214844 53.484375 192.984375 53.996094 C 193.753906 54.511719 194.496094 55.0625 195.214844 55.648438 C 195.929688 56.234375 196.613281 56.855469 197.269531 57.511719 C 197.925781 58.164062 198.546875 58.847656 199.132812 59.5625 C 199.722656 60.28125 200.273438 61.023438 200.789062 61.792969 C 201.300781 62.5625 201.777344 63.351562 202.214844 64.167969 C 202.652344 64.984375 203.046875 65.820312 203.402344 66.675781 C 203.753906 67.53125 204.066406 68.402344 204.335938 69.285156 C 204.605469 70.171875 204.832031 71.066406 205.011719 71.976562 C 205.191406 72.882812 205.328125 73.796875 205.417969 74.71875 C 205.507812 75.636719 205.554688 76.5625 205.554688 77.488281 Z M 205.554688 77.488281 "/>
<g clip-path="url(#clip3)" clip-rule="nonzero">
<path style=" stroke:none;fill-rule:nonzero;fill:rgb(19.999695%,19.999695%,19.999695%);fill-opacity:1;" d="M 186.753906 112.054688 L 169.539062 112.054688 C 166.902344 112.054688 165.496094 115.039062 166.902344 117.144531 C 171.472656 123.8125 175.863281 131.882812 175.863281 140.480469 L 175.863281 168.558594 L 217.675781 168.558594 C 221.542969 168.558594 224.703125 165.398438 224.703125 161.539062 L 224.703125 149.78125 C 224.527344 129.078125 207.488281 112.054688 186.753906 112.054688 Z M 186.753906 112.054688 "/>
</g>
<path style=" stroke:none;fill-rule:nonzero;fill:rgb(19.999695%,19.999695%,19.999695%);fill-opacity:1;" d="M 73.789062 77.488281 C 73.789062 78.414062 73.742188 79.335938 73.652344 80.257812 C 73.5625 81.175781 73.425781 82.089844 73.246094 83 C 73.066406 83.90625 72.839844 84.800781 72.570312 85.6875 C 72.300781 86.574219 71.988281 87.445312 71.636719 88.296875 C 71.28125 89.152344 70.886719 89.988281 70.449219 90.804688 C 70.011719 91.621094 69.535156 92.414062 69.023438 93.183594 C 68.507812 93.953125 67.957031 94.695312 67.367188 95.410156 C 66.78125 96.125 66.160156 96.808594 65.503906 97.464844 C 64.847656 98.117188 64.164062 98.738281 63.449219 99.324219 C 62.730469 99.914062 61.988281 100.464844 61.21875 100.976562 C 60.449219 101.492188 59.652344 101.964844 58.835938 102.402344 C 58.019531 102.839844 57.183594 103.234375 56.328125 103.585938 C 55.472656 103.941406 54.601562 104.253906 53.714844 104.523438 C 52.828125 104.789062 51.929688 105.015625 51.019531 105.195312 C 50.113281 105.375 49.199219 105.511719 48.277344 105.601562 C 47.355469 105.691406 46.429688 105.738281 45.503906 105.738281 C 44.578125 105.738281 43.652344 105.691406 42.730469 105.601562 C 41.808594 105.511719 40.894531 105.375 39.984375 105.195312 C 39.078125 105.015625 38.179688 104.789062 37.292969 104.523438 C 36.40625 104.253906 35.535156 103.941406 34.679688 103.585938 C 33.824219 103.234375 32.984375 102.839844 32.167969 102.402344 C 31.351562 101.964844 30.558594 101.492188 29.789062 100.976562 C 29.019531 100.464844 28.273438 99.914062 27.558594 99.324219 C 26.84375 98.738281 26.15625 98.117188 25.503906 97.464844 C 24.847656 96.808594 24.226562 96.125 23.636719 95.410156 C 23.050781 94.695312 22.5 93.953125 21.984375 93.183594 C 21.46875 92.414062 20.992188 91.621094 20.558594 90.804688 C 20.121094 89.988281 19.726562 89.152344 19.371094 88.296875 C 19.015625 87.445312 18.703125 86.574219 18.433594 85.6875 C 18.167969 84.800781 17.941406 83.90625 17.761719 83 C 17.582031 82.089844 17.445312 81.175781 17.355469 80.257812 C 17.261719 79.335938 17.21875 78.414062 17.21875 77.488281 C 17.21875 76.5625 17.261719 75.636719 17.355469 74.71875 C 17.445312 73.796875 17.582031 72.882812 17.761719 71.976562 C 17.941406 71.066406 18.167969 70.171875 18.433594 69.285156 C 18.703125 68.402344 19.015625 67.53125 19.371094 66.675781 C 19.726562 65.820312 20.121094 64.984375 20.558594 64.167969 C 20.992188 63.351562 21.46875 62.5625 21.984375 61.792969 C 22.5 61.023438 23.050781 60.28125 23.636719 59.5625 C 24.226562 58.847656 24.847656 58.164062 25.503906 57.511719 C 26.15625 56.855469 26.84375 56.234375 27.558594 55.648438 C 28.273438 55.0625 29.019531 54.511719 29.789062 53.996094 C 30.558594 53.484375 31.351562 53.007812 32.167969 52.570312 C 32.984375 52.136719 33.824219 51.738281 34.679688 51.386719 C 35.535156 51.03125 36.40625 50.71875 37.292969 50.453125 C 38.179688 50.183594 39.078125 49.957031 39.984375 49.777344 C 40.894531 49.597656 41.808594 49.460938 42.730469 49.371094 C 43.652344 49.28125 44.578125 49.234375 45.503906 49.234375 C 46.429688 49.234375 47.355469 49.28125 48.277344 49.371094 C 49.199219 49.460938 50.113281 49.597656 51.019531 49.777344 C 51.929688 49.957031 52.828125 50.183594 53.714844 50.453125 C 54.601562 50.71875 55.472656 51.03125 56.328125 51.386719 C 57.183594 51.738281 58.019531 52.136719 58.835938 52.570312 C 59.652344 53.007812 60.449219 53.484375 61.21875 53.996094 C 61.988281 54.511719 62.730469 55.0625 63.449219 55.648438 C 64.164062 56.234375 64.847656 56.855469 65.503906 57.511719 C 66.160156 58.164062 66.78125 58.847656 67.367188 59.5625 C 67.957031 60.28125 68.507812 61.023438 69.023438 61.792969 C 69.535156 62.5625 70.011719 63.351562 70.449219 64.167969 C 70.886719 64.984375 71.28125 65.820312 71.636719 66.675781 C 71.988281 67.53125 72.300781 68.402344 72.570312 69.285156 C 72.839844 70.171875 73.066406 71.066406 73.246094 71.976562 C 73.425781 72.882812 73.5625 73.796875 73.652344 74.71875 C 73.742188 75.636719 73.789062 76.5625 73.789062 77.488281 Z M 73.789062 77.488281 "/>
<path style=" stroke:none;fill-rule:nonzero;fill:rgb(19.999695%,19.999695%,19.999695%);fill-opacity:1;" d="M 54.464844 140.480469 C 54.464844 132.234375 58.679688 124.339844 62.894531 117.847656 C 64.300781 115.742188 62.894531 112.757812 60.4375 112.40625 C 58.679688 112.230469 56.921875 112.054688 54.988281 112.054688 L 37.773438 112.054688 C 17.042969 112.054688 0 129.078125 0 149.78125 L 0 161.539062 C 0 165.398438 3.164062 168.558594 7.027344 168.558594 L 54.464844 168.558594 Z M 54.464844 140.480469 "/>
</g>
</svg>
